<svg width="300" height="300" viewBox="0 0 300 300" fill="none" xmlns="http://www.w3.org/2000/svg">
<path d="M267.631 280.131H32.3713C23.2513 280.131 15.8613 272.741 15.8613 263.621V92.7014C15.8613 83.5814 23.2513 76.1914 32.3713 76.1914H267.631C276.751 76.1914 284.141 83.5814 284.141 92.7014V263.621C284.141 272.741 276.751 280.131 267.631 280.131Z" fill="white"/>
<path d="M55.6709 87.1875L71.1909 118.627L105.881 123.677L80.7809 148.147L86.7009 182.708L55.6709 166.387L24.6409 182.708L30.5609 148.147L5.46094 123.677L40.1509 118.627L55.6709 87.1875Z" fill="#FCD29A"/>
<path d="M244.331 87.1875L259.851 118.627L294.541 123.677L269.441 148.147L275.361 182.708L244.331 166.387L213.301 182.708L219.221 148.147L194.121 123.677L228.811 118.627L244.331 87.1875Z" fill="#FCD29A"/>
<path d="M152.73 36.1484L169.59 70.3184L207.3 75.7984L180.01 102.398L186.46 139.958L152.73 122.228L119 139.958L125.44 102.398L98.1504 75.7984L135.86 70.3184L152.73 36.1484Z" fill="#FCD29A"/>
<path d="M38.7715 200.52H260.141" stroke="#CCCCCC" stroke-miterlimit="10"/>
<path d="M38.7715 225.602H260.141" stroke="#CCCCCC" stroke-miterlimit="10"/>
<path d="M38.7715 250.68H196.921" stroke="#CCCCCC" stroke-miterlimit="10"/>
<path d="M98.7812 155.898H200.191" stroke="#CCCCCC" stroke-miterlimit="10"/>
<path d="M98.7812 175.531H200.191" stroke="#CCCCCC" stroke-miterlimit="10"/>
<path d="M17 19H67.67" stroke="#575152" stroke-miterlimit="10"/>
<path d="M17 29.6719H43.67" stroke="#575152" stroke-miterlimit="10"/>
<path d="M281.67 19H231" stroke="#575152" stroke-miterlimit="10"/>
<path d="M281.67 29.6719H255" stroke="#575152" stroke-miterlimit="10"/>
</svg>
