<svg width="11" height="7" viewBox="0 0 11 7" fill="none" xmlns="http://www.w3.org/2000/svg">
<path d="M5.5071 5.85339L5.50701 5.85339C5.28413 5.85245 5.07054 5.764 4.91224 5.60711C4.91216 5.60703 4.91209 5.60696 4.91201 5.60689L0.912447 1.60732L0.912335 1.60721C0.752191 1.4474 0.662089 1.23052 0.66185 1.00429C0.661611 0.778048 0.751254 0.560982 0.911059 0.400838C1.07086 0.240695 1.28774 0.150593 1.51398 0.150353C1.626 0.150235 1.73695 0.172182 1.84049 0.214941C1.94393 0.25766 2.03795 0.320316 2.1172 0.399338C2.11728 0.399413 2.11735 0.399488 2.11743 0.399563L5.40004 3.69918L5.50625 3.80594L5.61259 3.69931L8.90337 0.399525C8.90341 0.399491 8.90344 0.399456 8.90348 0.399421C8.98275 0.320282 9.07684 0.257525 9.18036 0.21473C9.28393 0.171916 9.39491 0.149921 9.50698 0.15C9.61905 0.150079 9.73001 0.172231 9.83351 0.21519C9.93702 0.25815 10.0311 0.321076 10.1102 0.400376C10.1894 0.479676 10.2522 0.573797 10.295 0.677364C10.3378 0.780932 10.3598 0.891918 10.3598 1.00399C10.3597 1.11605 10.3375 1.22701 10.2946 1.33052C10.2516 1.43402 10.1887 1.52806 10.1094 1.60724L10.1093 1.60732L6.10975 5.60689C6.10966 5.60698 6.10956 5.60707 6.10947 5.60716C6.03021 5.68571 5.93625 5.74788 5.83296 5.79013C5.72955 5.83242 5.61882 5.85392 5.5071 5.85339Z" fill="#1E1E1E" stroke="white" stroke-width="0.3"/>
</svg>
