<svg width="11" height="7" viewBox="0 0 11 7" fill="none" xmlns="http://www.w3.org/2000/svg">
<path d="M5.00026 0.15052L5.00018 0.150521C4.77729 0.151459 4.5637 0.239905 4.4054 0.396798C4.40533 0.396872 4.40525 0.396947 4.40518 0.397021L0.405611 4.39659L0.405499 4.3967C0.245356 4.55651 0.155253 4.77338 0.155014 4.99962C0.154775 5.22586 0.244418 5.44292 0.404223 5.60307C0.564029 5.76321 0.780905 5.85331 1.00714 5.85355C1.11916 5.85367 1.23011 5.83172 1.33365 5.78896C1.43709 5.74625 1.53112 5.68359 1.61037 5.60457C1.61044 5.60449 1.61052 5.60442 1.61059 5.60434L4.89321 2.30473L4.99942 2.19797L5.10576 2.3046L8.39654 5.60438C8.39657 5.60442 8.39661 5.60445 8.39664 5.60449C8.47592 5.68362 8.57 5.74638 8.67352 5.78918C8.77709 5.83199 8.88808 5.85399 9.00015 5.85391C9.11221 5.85383 9.22317 5.83168 9.32668 5.78872C9.43018 5.74576 9.52422 5.68283 9.6034 5.60353C9.68259 5.52423 9.74539 5.43011 9.7882 5.32654C9.83101 5.22297 9.85301 5.11199 9.85293 4.99992C9.85285 4.88785 9.8307 4.7769 9.78774 4.67339C9.74478 4.56988 9.68185 4.47585 9.60255 4.39666L9.60248 4.39659L5.60291 0.39702C5.60282 0.396929 5.60273 0.396836 5.60264 0.396745C5.52337 0.318197 5.42941 0.256026 5.32613 0.213778C5.22272 0.171481 5.11199 0.149986 5.00026 0.15052Z" fill="#DA0021" stroke="white" stroke-width="0.3"/>
</svg>
