<svg width="16" height="76" viewBox="0 0 16 76" fill="none" xmlns="http://www.w3.org/2000/svg">
<path d="M8.03076 76C7.75233 76 7.48537 75.894 7.28849 75.7055C7.0916 75.5169 6.98091 75.2611 6.98091 74.9945L6.98091 3.42968L1.84725 8.32672C1.75313 8.43198 1.63712 8.51747 1.50687 8.57783C1.37662 8.63818 1.23495 8.67209 1.09036 8.67744C0.945779 8.68279 0.801403 8.65947 0.666681 8.60892C0.531958 8.55836 0.409645 8.48167 0.307332 8.38367C0.205019 8.28568 0.125075 8.1685 0.0722944 8.03946C0.0195136 7.91042 -0.00480117 7.77232 0.000783511 7.63384C0.00636819 7.49536 0.0415741 7.35948 0.10459 7.23473C0.167605 7.10998 0.256896 6.99904 0.366796 6.9089L7.29592 0.292381C7.49262 0.105095 7.75853 0 8.03589 0C8.31325 0 8.57942 0.105095 8.77612 0.292381L15.6947 6.91893C15.8903 7.10733 16 7.36221 16 7.62786C16 7.89351 15.8903 8.14835 15.6947 8.33675C15.4966 8.52539 15.2287 8.63129 14.9494 8.63129C14.67 8.63129 14.4019 8.52539 14.2038 8.33675L9.08062 3.42968L9.08062 74.9945C9.08062 75.2611 8.96993 75.5169 8.77304 75.7055C8.57616 75.894 8.3092 76 8.03076 76Z" fill="#DA0021"/>
</svg>
