<svg width="26" height="16" viewBox="0 0 26 16" fill="none" xmlns="http://www.w3.org/2000/svg">
<path d="M0 8.03076C0 7.75233 0.107098 7.48537 0.297708 7.28849C0.488318 7.0916 0.746825 6.98091 1.01639 6.98091H22.5333L17.5835 1.84725C17.4771 1.75313 17.3907 1.63712 17.3297 1.50687C17.2687 1.37662 17.2344 1.23495 17.229 1.09036C17.2236 0.945779 17.2472 0.801403 17.2983 0.666681C17.3494 0.531958 17.4269 0.409645 17.5259 0.307332C17.625 0.205019 17.7434 0.125075 17.8739 0.0722944C18.0043 0.0195136 18.1439 -0.00480117 18.2838 0.000783511C18.4238 0.00636819 18.5612 0.0415741 18.6873 0.10459C18.8134 0.167605 18.9255 0.256896 19.0166 0.366796L25.7045 7.29592C25.8938 7.49262 26 7.75853 26 8.03589C26 8.31325 25.8938 8.57942 25.7045 8.77612L19.0065 15.6947C18.816 15.8903 18.5584 16 18.2899 16C18.0214 16 17.7638 15.8903 17.5734 15.6947C17.3827 15.4966 17.2757 15.2287 17.2757 14.9494C17.2757 14.67 17.3827 14.4019 17.5734 14.2038L22.5333 9.08062H1.01639C0.746825 9.08062 0.488318 8.96993 0.297708 8.77304C0.107098 8.57616 0 8.3092 0 8.03076Z" fill="#1F1C1C"/>
</svg>
