<svg width="32" height="32" viewBox="0 0 32 32" fill="none" xmlns="http://www.w3.org/2000/svg">
<path d="M2.66797 8.0013C2.66797 6.58681 3.22987 5.23026 4.23007 4.23007C5.23026 3.22987 6.58681 2.66797 8.0013 2.66797H24.0013C25.4158 2.66797 26.7723 3.22987 27.7725 4.23007C28.7727 5.23026 29.3346 6.58681 29.3346 8.0013V24.0013C29.3346 25.4158 28.7727 26.7723 27.7725 27.7725C26.7723 28.7727 25.4158 29.3346 24.0013 29.3346H8.0013C6.58681 29.3346 5.23026 28.7727 4.23007 27.7725C3.22987 26.7723 2.66797 25.4158 2.66797 24.0013V8.0013Z" stroke="#DA0021" stroke-linecap="round" stroke-linejoin="round"/>
<path d="M11.3333 14.6667C13.1743 14.6667 14.6667 13.1743 14.6667 11.3333C14.6667 9.49238 13.1743 8 11.3333 8C9.49238 8 8 9.49238 8 11.3333C8 13.1743 9.49238 14.6667 11.3333 14.6667Z" stroke="#DA0021" stroke-linecap="round" stroke-linejoin="round"/>
<path d="M19.368 16.8297L8 29.335H24.1773C25.5448 29.335 26.8562 28.7918 27.8232 27.8249C28.7901 26.8579 29.3333 25.5465 29.3333 24.179V24.0017C29.3333 23.3804 29.1 23.1417 28.68 22.6817L23.3067 16.8217C23.0562 16.5485 22.7516 16.3305 22.4122 16.1817C22.0729 16.0328 21.7062 15.9563 21.3356 15.957C20.965 15.9578 20.5986 16.0358 20.2598 16.186C19.9211 16.3363 19.6173 16.5555 19.368 16.8297V16.8297Z" stroke="#DA0021" stroke-linecap="round" stroke-linejoin="round"/>
</svg>
