<svg width="25" height="23" viewBox="0 0 25 23" fill="none" xmlns="http://www.w3.org/2000/svg">
<path d="M20.5413 4.69792H17.0413V3.53125C17.0413 2.60299 16.6726 1.71275 16.0162 1.05638C15.3598 0.399999 14.4696 0.03125 13.5413 0.03125H11.208C10.2798 0.03125 9.38951 0.399999 8.73313 1.05638C8.07676 1.71275 7.70801 2.60299 7.70801 3.53125V4.69792H4.20801C3.27975 4.69792 2.38951 5.06667 1.73313 5.72304C1.07676 6.37942 0.708008 7.26966 0.708008 8.19792V18.6979C0.708008 19.6262 1.07676 20.5164 1.73313 21.1728C2.38951 21.8292 3.27975 22.1979 4.20801 22.1979H20.5413C21.4696 22.1979 22.3598 21.8292 23.0162 21.1728C23.6726 20.5164 24.0413 19.6262 24.0413 18.6979V8.19792C24.0413 7.26966 23.6726 6.37942 23.0162 5.72304C22.3598 5.06667 21.4696 4.69792 20.5413 4.69792ZM10.0413 3.53125C10.0413 3.22183 10.1643 2.92508 10.3831 2.70629C10.6018 2.4875 10.8986 2.36458 11.208 2.36458H13.5413C13.8508 2.36458 14.1475 2.4875 14.3663 2.70629C14.5851 2.92508 14.708 3.22183 14.708 3.53125V4.69792H10.0413V3.53125ZM21.708 18.6979C21.708 19.0073 21.5851 19.3041 21.3663 19.5229C21.1475 19.7417 20.8508 19.8646 20.5413 19.8646H4.20801C3.89859 19.8646 3.60184 19.7417 3.38305 19.5229C3.16426 19.3041 3.04134 19.0073 3.04134 18.6979V12.2812C4.17936 12.7326 5.34922 13.0992 6.54134 13.3779V14.0662C6.54134 14.3757 6.66426 14.6724 6.88305 14.8912C7.10184 15.11 7.39859 15.2329 7.70801 15.2329C8.01743 15.2329 8.31417 15.11 8.53297 14.8912C8.75176 14.6724 8.87467 14.3757 8.87467 14.0662V13.8212C10.0347 13.9792 11.2039 14.061 12.3747 14.0662C13.5454 14.061 14.7146 13.9792 15.8747 13.8212V14.0662C15.8747 14.3757 15.9976 14.6724 16.2164 14.8912C16.4352 15.11 16.7319 15.2329 17.0413 15.2329C17.3508 15.2329 17.6475 15.11 17.8663 14.8912C18.0851 14.6724 18.208 14.3757 18.208 14.0662V13.3779C19.4001 13.0992 20.57 12.7326 21.708 12.2812V18.6979ZM21.708 9.72625C20.5733 10.2052 19.4031 10.5952 18.208 10.8929V10.5312C18.208 10.2218 18.0851 9.92508 17.8663 9.70629C17.6475 9.4875 17.3508 9.36458 17.0413 9.36458C16.7319 9.36458 16.4352 9.4875 16.2164 9.70629C15.9976 9.92508 15.8747 10.2218 15.8747 10.5312V11.3946C13.5545 11.7446 11.1949 11.7446 8.87467 11.3946V10.5312C8.87467 10.2218 8.75176 9.92508 8.53297 9.70629C8.31417 9.4875 8.01743 9.36458 7.70801 9.36458C7.39859 9.36458 7.10184 9.4875 6.88305 9.70629C6.66426 9.92508 6.54134 10.2218 6.54134 10.5312V10.9162C5.34623 10.6186 4.17605 10.2285 3.04134 9.74958V8.19792C3.04134 7.8885 3.16426 7.59175 3.38305 7.37296C3.60184 7.15417 3.89859 7.03125 4.20801 7.03125H20.5413C20.8508 7.03125 21.1475 7.15417 21.3663 7.37296C21.5851 7.59175 21.708 7.8885 21.708 8.19792V9.72625Z" fill="#DA0021"/>
</svg>
