<svg width="12" height="12" viewBox="0 0 12 12" fill="none" xmlns="http://www.w3.org/2000/svg">
<path fill-rule="evenodd" clip-rule="evenodd" d="M5.24626 6.00039L0.557191 10.6969C0.348124 10.8985 0.348124 11.2345 0.557191 11.4436C0.766257 11.6527 1.10226 11.6527 1.30386 11.4436L6.00039 6.75452L10.6969 11.4436C10.8985 11.6527 11.2345 11.6527 11.4436 11.4436C11.6527 11.2345 11.6527 10.8985 11.4436 10.6969L6.75452 6.00039L11.4436 1.30386C11.6527 1.10226 11.6527 0.766257 11.4436 0.557191C11.2345 0.348124 10.8985 0.348124 10.6969 0.557191L6.00039 5.24626L1.30386 0.557191C1.10226 0.348124 0.766257 0.348124 0.557191 0.557191C0.348124 0.766257 0.348124 1.10226 0.557191 1.30386L5.24626 6.00039Z" fill="black"/>
</svg>
