<svg width="300" height="300" viewBox="0 0 300 300" fill="none" xmlns="http://www.w3.org/2000/svg">
<path d="M111.33 201.001C114.33 201.001 117.3 200.851 120.23 200.571C152.7 197.421 180.17 177.201 193.56 149.011L149 129.371C142.42 142.141 129.54 151.141 114.46 152.241C113.43 152.321 112.38 152.351 111.33 152.351V201.001Z" fill="#7BCAB5"/>
<path d="M153.701 110C153.701 115.51 152.641 120.77 150.721 125.6L195.841 143.81C200.031 133.36 202.331 121.95 202.331 110H153.701Z" fill="#F58F87"/>
<path d="M104.01 151.72C84.1001 148.25 68.9701 130.9 68.9701 110C68.9701 86.6 87.9401 67.64 111.33 67.64C132.29 67.64 149.69 82.86 153.09 102.84C153.18 103.36 153.26 103.88 153.33 104.4L201.57 98.18C195.78 53.51 157.59 19 111.33 19C61.0701 19 20.3301 59.74 20.3301 110C20.3301 156.76 55.5901 195.27 100.98 200.41L104.01 151.72Z" fill="#5FCCF4"/>
<path d="M211.68 219.738C208.38 217.358 204.3 215.818 200.54 215.048V221.348C213.37 223.888 220.67 227.878 220.67 238.328V238.478C220.67 248.618 212.76 254.538 200.69 255.458V262.998H192.7V255.468C184.17 254.698 175.87 252.008 169.34 247.478L177.18 235.878C182.87 239.568 188.17 241.568 193.16 242.328V235.878C179.56 233.268 172.42 229.038 172.42 218.978V218.828C172.42 209.298 179.26 202.308 193.01 201.618V197.238H201V201.848C208.15 202.538 213.91 204.768 219.06 208.068L211.68 219.738ZM193.31 220.578V214.358C189.55 214.438 188.16 215.668 188.16 217.198V217.348C188.17 218.968 189.32 219.888 193.31 220.578ZM200.38 236.568V242.788C203.91 242.638 205.3 241.478 205.3 239.868V239.718C205.3 238.098 204.3 237.258 200.38 236.568Z" fill="#FCD29A"/>
<path d="M265.01 219.738C261.71 217.358 257.63 215.818 253.87 215.048V221.348C266.7 223.888 274 227.878 274 238.328V238.478C274 248.618 266.09 254.538 254.02 255.458V262.998H246.03V255.468C237.5 254.698 229.2 252.008 222.67 247.478L230.51 235.878C236.2 239.568 241.5 241.568 246.49 242.328V235.878C232.89 233.268 225.75 229.038 225.75 218.978V218.828C225.75 209.298 232.59 202.308 246.34 201.618V197.238H254.33V201.848C261.48 202.538 267.24 204.768 272.39 208.068L265.01 219.738ZM246.65 220.578V214.358C242.89 214.438 241.5 215.668 241.5 217.198V217.348C241.5 218.968 242.65 219.888 246.65 220.578ZM253.72 236.568V242.788C257.25 242.638 258.64 241.478 258.64 239.868V239.718C258.63 238.098 257.63 237.258 253.72 236.568Z" fill="#FCD29A"/>
<path d="M217 42H281" stroke="white" stroke-width="1.1375" stroke-miterlimit="10"/>
<path d="M247 53H281" stroke="white" stroke-width="1.1375" stroke-miterlimit="10"/>
<path d="M217 73H281" stroke="white" stroke-width="1.1375" stroke-miterlimit="10"/>
<path d="M247 84H281" stroke="white" stroke-width="1.1375" stroke-miterlimit="10"/>
<path d="M143.04 253H45.96C42.67 253 40 250.33 40 247.04V229.96C40 226.67 42.67 224 45.96 224H143.04C146.33 224 149 226.67 149 229.96V247.04C149 250.33 146.33 253 143.04 253Z" fill="white"/>
</svg>
