<svg width="103" height="107" viewBox="0 0 103 107" fill="none" xmlns="http://www.w3.org/2000/svg">
<path d="M27.9251 10.7871C28.1784 10.2332 27.9348 9.57893 27.381 9.32563C26.8272 9.07233 26.1729 9.31595 25.9196 9.86977C25.6663 10.4236 25.9099 11.0779 26.4637 11.3312C27.0175 11.5845 27.6718 11.3409 27.9251 10.7871Z" fill="#DA0021"/>
<path d="M84.0443 49.0197C84.2982 48.4678 84.0566 47.8146 83.5047 47.5607C82.9528 47.3068 82.2995 47.5484 82.0457 48.1003C81.7918 48.6522 82.0334 49.3054 82.5853 49.5593C83.1372 49.8132 83.7904 49.5716 84.0443 49.0197Z" fill="#1F1C1C"/>
<path d="M70.7103 17.5856C70.9642 17.0337 70.7226 16.3805 70.1707 16.1266C69.6188 15.8727 68.9656 16.1143 68.7117 16.6662C68.4578 17.2181 68.6994 17.8713 69.2513 18.1252C69.8032 18.3791 70.4564 18.1375 70.7103 17.5856Z" fill="#DA0021"/>
<path d="M82.4803 36.9875L89.9883 30.075" stroke="#DA0021" stroke-width="2" stroke-linecap="round" stroke-linejoin="round"/>
<path d="M41.2035 17.0505L40.3242 10.5146" stroke="#1F1C1C" stroke-width="2" stroke-linecap="round" stroke-linejoin="round"/>
<path d="M53.5113 40.095L59.6258 23.8048C59.7386 23.5006 59.7903 23.1773 59.7781 22.8531C59.7659 22.529 59.69 22.2104 59.5546 21.9156C59.4193 21.6209 59.2272 21.3556 58.9894 21.135C58.7516 20.9145 58.4726 20.7429 58.1685 20.6302C57.6745 20.4447 57.1341 20.4223 56.6265 20.5662C56.1189 20.7101 55.6707 21.0127 55.3475 21.4299L44.3623 35.6997C41.5165 39.3895 39.5133 43.658 38.4936 48.2049L36.0921 58.8713C36.0921 58.8713 35.1317 61.117 30.637 62.1643C25.9211 63.2033 8.99414 68.4603 8.99414 68.4603" stroke="#DA0021" stroke-width="2" stroke-linecap="round" stroke-linejoin="round"/>
<path d="M47.9084 48.5883L50.0169 42.971C50.2965 42.2261 50.8605 41.6227 51.585 41.2937C52.3094 40.9647 53.1349 40.9369 53.8798 41.2165C54.6247 41.4961 55.228 42.0602 55.557 42.7846C55.886 43.5091 55.9138 44.3345 55.6342 45.0794L48.4795 64.1409C47.3161 67.2498 45.0076 69.796 42.0271 71.2574L32.6332 75.8811L16.7646 83.8104" stroke="#DA0021" stroke-width="2" stroke-linecap="round" stroke-linejoin="round"/>
<path d="M62.455 44.5212L68.5695 28.2309C68.7997 27.6176 69.2641 27.1209 69.8606 26.85C70.457 26.5791 71.1367 26.5562 71.75 26.7864C72.244 26.9718 72.6656 27.3105 72.9532 27.7529C73.2408 28.1952 73.3791 28.7181 73.348 29.2448L72.2364 47.2313C71.9515 51.8825 70.6513 56.4148 68.4273 60.5097L63.2079 70.1183C63.2079 70.1183 62.4534 72.4413 65.1489 76.1875C68.0257 80.0765 77.313 95.173 77.313 95.173" stroke="#1F1C1C" stroke-width="2" stroke-linecap="round" stroke-linejoin="round"/>
<path d="M61.0855 54.6023L63.194 48.985C63.4736 48.2401 63.4458 47.4146 63.1168 46.6902C62.7878 45.9658 62.1844 45.4017 61.4395 45.1221C60.6946 44.8425 59.8692 44.8703 59.1447 45.1993C58.4203 45.5283 57.8562 46.1316 57.5766 46.8765L50.4219 65.938C49.2522 69.0446 49.3152 72.4809 50.598 75.5425L54.6295 85.2054L61.3613 101.618" stroke="#1F1C1C" stroke-width="2" stroke-linecap="round" stroke-linejoin="round"/>
</svg>
