<svg width="25" height="16" viewBox="0 0 25 16" fill="none" xmlns="http://www.w3.org/2000/svg">
<path d="M25 8.02937C25 8.30984 24.8946 8.57874 24.7071 8.77706C24.5196 8.97538 24.2652 9.08687 24 9.08687H3.409L8.27499 14.2579C8.43754 14.4603 8.52212 14.7202 8.51196 14.9855C8.5018 15.2508 8.39764 15.5022 8.22015 15.6901C8.04267 15.8779 7.80484 15.9882 7.55396 15.9991C7.30307 16.01 7.0575 15.9209 6.866 15.7492L0.290985 8.76957C0.104734 8.57143 0.000213623 8.30358 0.000213623 8.02421C0.000213623 7.74483 0.104734 7.47672 0.290985 7.27859L6.87601 0.309557C6.96837 0.211429 7.07814 0.133684 7.19904 0.0805521C7.31993 0.02742 7.44958 0 7.58051 0C7.71143 0 7.84105 0.02742 7.96194 0.0805521C8.08284 0.133684 8.19264 0.211429 8.285 0.309557C8.47235 0.509221 8.57748 0.77906 8.57748 1.06034C8.57748 1.34162 8.47235 1.61172 8.285 1.81139L3.409 6.97187L24.001 6.97187C24.2661 6.97215 24.5201 7.08365 24.7075 7.28194C24.8948 7.48023 25 7.74909 25 8.02937Z" fill="black"/>
</svg>
