<svg width="26" height="16" viewBox="0 0 26 16" fill="none" xmlns="http://www.w3.org/2000/svg">
<path d="M0.126953 7.97063C0.126953 7.69016 0.232324 7.42126 0.419861 7.22294C0.607397 7.02462 0.861737 6.91313 1.12695 6.91313H21.718L16.852 1.74206C16.6894 1.53967 16.6048 1.27983 16.615 1.01451C16.6252 0.749195 16.7293 0.497766 16.9068 0.30994C17.0843 0.122113 17.3221 0.0118329 17.573 0.00089912C17.8239 -0.0100347 18.0695 0.0790706 18.261 0.250816L24.836 7.23043C25.0222 7.42857 25.1267 7.69642 25.1267 7.97579C25.1267 8.25517 25.0222 8.52328 24.836 8.72141L18.2509 15.6904C18.1586 15.7886 18.0488 15.8663 17.9279 15.9194C17.807 15.9726 17.6774 16 17.5464 16C17.4155 16 17.2859 15.9726 17.165 15.9194C17.0441 15.8663 16.9343 15.7886 16.8419 15.6904C16.6546 15.4908 16.5495 15.2209 16.5495 14.9397C16.5495 14.6584 16.6546 14.3883 16.8419 14.1886L21.718 9.02813H1.12595C0.860903 9.02785 0.606815 8.91635 0.419495 8.71806C0.232174 8.51977 0.126953 8.25091 0.126953 7.97063Z" fill="black"/>
</svg>
