<svg width="21" height="21" viewBox="0 0 21 21" fill="none" xmlns="http://www.w3.org/2000/svg">
<path fill-rule="evenodd" clip-rule="evenodd" d="M9.086 10.5L0.294 19.306C-0.098 19.684 -0.098 20.314 0.294 20.706C0.686 21.098 1.316 21.098 1.694 20.706L10.5 11.914L19.306 20.706C19.684 21.098 20.314 21.098 20.706 20.706C21.098 20.314 21.098 19.684 20.706 19.306L11.914 10.5L20.706 1.694C21.098 1.316 21.098 0.686 20.706 0.294C20.314 -0.098 19.684 -0.098 19.306 0.294L10.5 9.086L1.694 0.294C1.316 -0.098 0.686 -0.098 0.294 0.294C-0.098 0.686 -0.098 1.316 0.294 1.694L9.086 10.5Z" fill="white"/>
</svg>
