<svg width="28" height="20" viewBox="0 0 28 20" fill="none" xmlns="http://www.w3.org/2000/svg">
<path d="M26.6 0H1.4C0.626938 0 0 0.639732 0 1.42857V18.5714C0 19.3603 0.626938 20 1.4 20H26.6C27.3731 20 28 19.3603 28 18.5714V1.42857C28 0.639732 27.3731 0 26.6 0ZM7.7 13.2089V13.9286C7.7 14.1259 7.54338 14.2857 7.35 14.2857H6.65C6.45662 14.2857 6.3 14.1259 6.3 13.9286V13.2013C5.80606 13.1754 5.32569 12.9996 4.92756 12.6946C4.75694 12.5638 4.74819 12.3031 4.90262 12.1527L5.41669 11.6522C5.53787 11.5344 5.71812 11.529 5.85988 11.6196C6.02919 11.7277 6.22125 11.7857 6.42075 11.7857H7.65056C7.93494 11.7857 8.16681 11.5214 8.16681 11.1969C8.16681 10.9313 8.00887 10.6973 7.78312 10.6286L5.81437 10.0259C5.00106 9.77678 4.43275 8.98036 4.43275 8.08884C4.43275 6.9942 5.26619 6.10491 6.29956 6.07679V5.35714C6.29956 5.15982 6.45619 5 6.64956 5H7.34956C7.54294 5 7.69956 5.15982 7.69956 5.35714V6.08437C8.1935 6.11027 8.67387 6.28571 9.072 6.59107C9.24263 6.72188 9.25137 6.98259 9.09694 7.13304L8.58287 7.63348C8.46169 7.75134 8.28144 7.7567 8.13969 7.66607C7.97038 7.55759 7.77831 7.5 7.57881 7.5H6.349C6.06462 7.5 5.83275 7.76429 5.83275 8.08884C5.83275 8.35446 5.99069 8.58839 6.21644 8.65714L8.18519 9.25982C8.9985 9.50893 9.56681 10.3054 9.56681 11.1969C9.56681 12.292 8.73337 13.1808 7.7 13.2089ZM18.2 12.5C18.2 12.6973 18.0434 12.8571 17.85 12.8571H12.95C12.7566 12.8571 12.6 12.6973 12.6 12.5V11.7857C12.6 11.5884 12.7566 11.4286 12.95 11.4286H17.85C18.0434 11.4286 18.2 11.5884 18.2 11.7857V12.5ZM25.2 12.5C25.2 12.6973 25.0434 12.8571 24.85 12.8571H21.35C21.1566 12.8571 21 12.6973 21 12.5V11.7857C21 11.5884 21.1566 11.4286 21.35 11.4286H24.85C25.0434 11.4286 25.2 11.5884 25.2 11.7857V12.5ZM25.2 8.21429C25.2 8.41161 25.0434 8.57143 24.85 8.57143H12.95C12.7566 8.57143 12.6 8.41161 12.6 8.21429V7.5C12.6 7.30268 12.7566 7.14286 12.95 7.14286H24.85C25.0434 7.14286 25.2 7.30268 25.2 7.5V8.21429Z" fill="black"/>
</svg>
