<svg width="71" height="91" viewBox="0 0 71 91" fill="none" xmlns="http://www.w3.org/2000/svg">
<path fill-rule="evenodd" clip-rule="evenodd" d="M67.9997 0.502745C51.7528 0.50243 37.2967 7.93738 28.3722 17.8107C24.6655 21.9115 21.8243 26.5605 20.2627 31.348C15.4717 34.5684 10.7729 38.696 7.12951 43.1137C3.21669 47.8581 0.235228 53.285 0.11766 58.491C-0.0774674 67.1314 0.295329 71.661 2.87193 75.4773C4.10577 77.3048 5.77197 78.8602 7.72768 80.5939C8.12877 80.9494 8.547 81.3166 8.98425 81.7004L8.98479 81.7009C9.96099 82.5578 11.032 83.498 12.2185 84.5781L5.20188 85.6694C3.83757 85.8815 2.90358 87.1595 3.11576 88.5239C3.32794 89.8882 4.60594 90.8222 5.97025 90.61L17.8875 88.7566C19.4963 88.5064 20.72 87.1799 20.8401 85.5563L21.6885 74.0837C21.7903 72.7067 20.7567 71.5079 19.3797 71.4061C18.0028 71.3043 16.804 72.338 16.7021 73.7149L16.135 81.3846C14.6725 80.04 13.3789 78.9047 12.2531 77.9165L12.2531 77.9165C11.8261 77.5417 11.4233 77.1881 11.0445 76.8523C9.06791 75.1002 7.8534 73.92 7.01588 72.6795C5.44976 70.3599 4.91721 67.4234 5.11638 58.6039C5.19597 55.0801 7.32271 50.7379 10.9869 46.295C13.2544 43.5457 16.0023 40.89 18.9335 38.5325C18.7657 42.821 19.7717 47.0579 22.2424 50.9553C22.9451 52.0637 24.0745 52.6582 25.0341 52.979C26.0441 53.3167 27.1941 53.4645 28.3691 53.4639C30.7246 53.4627 33.5137 52.8653 36.1704 51.5262C41.6313 48.7738 46.4673 42.9037 46.0103 32.9812C45.8859 30.2799 44.9902 27.9805 43.1301 26.442C41.3148 24.9406 38.9912 24.5073 36.7104 24.6192C33.9552 24.7544 30.8221 25.7012 27.62 27.1705C28.8271 25.1289 30.3197 23.1125 32.0814 21.1635C40.1131 12.278 53.2465 5.50246 67.9996 5.50275C69.3804 5.50277 70.4997 4.38351 70.4997 3.00279C70.4997 1.62208 69.3804 0.502774 67.9997 0.502745ZM26.3782 48.1392C23.8867 44.1213 23.3489 39.3956 24.543 34.5294C29.343 31.5213 33.8272 29.7667 36.9555 29.6132C38.5163 29.5366 39.4303 29.8706 39.9435 30.295C40.4118 30.6823 40.9353 31.4672 41.0156 33.2112C41.3776 41.0699 37.7069 45.1526 33.92 47.0613C31.9527 48.0528 29.9326 48.4631 28.3667 48.4639C27.581 48.4643 26.9921 48.3616 26.6194 48.237C26.5015 48.1976 26.4244 48.1629 26.3782 48.1392Z" fill="#DA0021"/>
</svg>
