<svg width="47" height="62" viewBox="0 0 47 62" fill="none" xmlns="http://www.w3.org/2000/svg">
<path fill-rule="evenodd" clip-rule="evenodd" d="M1.91145 1.56168C11.1845 -1.71341 22.0971 0.548158 30.6279 5.74266C39.1457 10.9293 45.9163 19.4402 46.1393 29.3138C46.3344 37.9542 45.9617 42.4838 43.3851 46.3001C42.1512 48.1276 40.485 49.6829 38.5293 51.4166C38.128 51.7724 37.7096 52.1397 37.2721 52.5237C36.296 53.3806 35.2252 54.3207 34.0387 55.4007L41.0555 56.492C42.4198 56.7041 43.3538 57.9821 43.1416 59.3465C42.9294 60.7108 41.6514 61.6448 40.2871 61.4326L28.3699 59.5792C26.7611 59.329 25.5373 58.0025 25.4173 56.3789L24.5689 44.9063C24.467 43.5293 25.5007 42.3305 26.8777 42.2287C28.2546 42.1269 29.4534 43.1606 29.5552 44.5375L30.1224 52.207C31.5848 50.8626 32.8782 49.7273 34.0039 48.7393L34.0045 48.7387C34.4313 48.3642 34.8339 48.0108 35.2125 47.6751C37.1891 45.923 38.4036 44.7428 39.2411 43.5023C40.8072 41.1827 41.3398 38.2462 41.1406 29.4267C40.9693 21.8406 35.67 14.6669 28.0275 10.0132C20.398 5.36753 11.0597 3.63334 3.57657 6.27627C2.27467 6.73608 0.846521 6.05343 0.386712 4.75153C-0.0730968 3.44963 0.60955 2.02149 1.91145 1.56168Z" fill="#DA0021"/>
</svg>
