<svg width="65" height="53" viewBox="0 0 65 53" fill="none" xmlns="http://www.w3.org/2000/svg">
<path fill-rule="evenodd" clip-rule="evenodd" d="M63.333 38.883C64.381 41.4021 64.5204 43.8842 63.4498 46.0802C62.4119 48.2091 60.4614 49.5997 58.3169 50.4865C54.0804 52.2383 47.9966 52.4891 41.8452 51.7544C35.6153 51.0104 28.9279 49.209 23.3177 46.507C17.8018 43.8503 12.8698 40.0994 10.8672 35.1921C8.70382 29.8905 7.40939 24.9696 7.54095 19.6725C7.64307 15.5611 8.60042 11.3552 10.51 6.68637L3.96162 8.61177C2.63698 9.00125 1.24741 8.24315 0.857928 6.91851C0.468449 5.59387 1.22655 4.2043 2.55119 3.81482L14.1219 0.412714C15.6839 -0.0465474 17.3563 0.63188 18.1568 2.04954L23.8136 12.0666C24.4925 13.2688 24.0683 14.7938 22.8661 15.4728C21.6638 16.1517 20.1388 15.7275 19.4599 14.5252L15.5498 7.60133C13.5299 12.2617 12.6298 16.1589 12.5394 19.7966C12.4312 24.1526 13.4778 28.3559 15.4966 33.303C16.7933 36.4805 20.3458 39.5259 25.4874 42.0022C30.5346 44.4332 36.6774 46.1017 42.4381 46.7897C48.2772 47.4871 53.3442 47.1321 56.4062 45.8659C57.911 45.2437 58.6468 44.5222 58.9554 43.889C59.2314 43.3229 59.3778 42.3931 58.7165 40.8035C58.1862 39.5287 58.7897 38.0654 60.0645 37.535C61.3393 37.0047 62.8026 37.6082 63.333 38.883Z" fill="#DA0021"/>
</svg>
