<svg width="28" height="28" viewBox="0 0 28 28" fill="none" xmlns="http://www.w3.org/2000/svg">
<path d="M0.667969 6.0013C0.667969 4.58681 1.22987 3.23026 2.23007 2.23007C3.23026 1.22987 4.58681 0.667969 6.0013 0.667969H22.0013C23.4158 0.667969 24.7723 1.22987 25.7725 2.23007C26.7727 3.23026 27.3346 4.58681 27.3346 6.0013V22.0013C27.3346 23.4158 26.7727 24.7723 25.7725 25.7725C24.7723 26.7727 23.4158 27.3346 22.0013 27.3346H6.0013C4.58681 27.3346 3.23026 26.7727 2.23007 25.7725C1.22987 24.7723 0.667969 23.4158 0.667969 22.0013V6.0013Z" stroke="#DA0021" stroke-linecap="round" stroke-linejoin="round"/>
<path d="M9.33333 12.6667C11.1743 12.6667 12.6667 11.1743 12.6667 9.33333C12.6667 7.49238 11.1743 6 9.33333 6C7.49238 6 6 7.49238 6 9.33333C6 11.1743 7.49238 12.6667 9.33333 12.6667Z" stroke="#DA0021" stroke-linecap="round" stroke-linejoin="round"/>
<path d="M17.368 14.8297L6 27.335H22.1773C23.5448 27.335 24.8562 26.7918 25.8232 25.8249C26.7901 24.8579 27.3333 23.5465 27.3333 22.179V22.0017C27.3333 21.3804 27.1 21.1417 26.68 20.6817L21.3067 14.8217C21.0562 14.5485 20.7516 14.3305 20.4122 14.1817C20.0729 14.0328 19.7062 13.9563 19.3356 13.957C18.965 13.9578 18.5986 14.0358 18.2598 14.186C17.9211 14.3363 17.6173 14.5555 17.368 14.8297V14.8297Z" stroke="#DA0021" stroke-linecap="round" stroke-linejoin="round"/>
</svg>
