<svg width="29" height="29" viewBox="0 0 29 29" fill="none" xmlns="http://www.w3.org/2000/svg">
<g clip-path="url(#clip0_1677_45116)">
<path d="M25.3122 28.1133C24.9098 28.1145 24.5112 28.0358 24.1395 27.8819C23.7678 27.7279 23.4303 27.5017 23.1465 27.2164L19.5345 23.6044C18.5096 23.8308 17.4419 23.7688 16.45 23.4255C15.458 23.0822 14.5805 22.4709 13.9147 21.6594C13.2489 20.8479 12.8208 19.8679 12.6779 18.828C12.535 17.7881 12.6828 16.729 13.105 15.7679L13.6195 14.5954L17.256 18.2319C17.4226 18.3909 17.644 18.4797 17.8742 18.4797C18.1045 18.4797 18.3259 18.3909 18.4924 18.2319C18.5738 18.1508 18.6384 18.0544 18.6825 17.9483C18.7266 17.8422 18.7493 17.7284 18.7494 17.6135C18.7495 17.4986 18.7269 17.3848 18.683 17.2786C18.639 17.1724 18.5746 17.0759 18.4933 16.9947L14.8568 13.3573L16.0293 12.8428C16.9904 12.4209 18.0496 12.2733 19.0894 12.4163C20.1293 12.5594 21.1092 12.9876 21.9206 13.6535C22.7321 14.3193 23.3433 15.1968 23.6866 16.1887C24.03 17.1806 24.092 18.2482 23.8658 19.2732L27.4778 22.8852C27.9061 23.3135 28.1978 23.8592 28.316 24.4533C28.4342 25.0474 28.3736 25.6632 28.1418 26.2228C27.9099 26.7824 27.5174 27.2607 27.0137 27.5972C26.5101 27.9338 25.9179 28.1133 25.3122 28.1133ZM20.0359 21.6304L24.3847 25.9792C24.6345 26.2177 24.9667 26.3508 25.3122 26.3508C25.6576 26.3508 25.9898 26.2177 26.2397 25.9792C26.3617 25.8574 26.4585 25.7128 26.5246 25.5536C26.5907 25.3943 26.6247 25.2236 26.6247 25.0512C26.6247 24.8788 26.5907 24.7081 26.5246 24.5489C26.4585 24.3897 26.3617 24.2451 26.2397 24.1233L21.8918 19.7746L22.0563 19.2644C22.2485 18.6737 22.2981 18.0458 22.2009 17.4322C22.1038 16.8187 21.8628 16.2368 21.4975 15.7343C21.1323 15.2318 20.6532 14.8229 20.0996 14.5412C19.5459 14.2594 18.9334 14.1128 18.3122 14.1133C18.2387 14.1133 18.1658 14.1153 18.0934 14.1194L19.7314 15.7574C20.2235 16.2497 20.5 16.9172 20.5 17.6133C20.5 18.3094 20.2235 18.9769 19.7314 19.4692C19.2314 19.9467 18.5665 20.2131 17.8751 20.2131C17.1837 20.2131 16.5189 19.9467 16.0188 19.4692L14.3808 17.8312C14.3767 17.9041 14.3747 17.9773 14.3747 18.0508C14.3742 18.6721 14.5208 19.2847 14.8026 19.8385C15.0844 20.3923 15.4934 20.8714 15.9959 21.2367C16.4985 21.6021 17.0805 21.8432 17.6941 21.9404C18.3078 22.0375 18.9358 21.988 19.5267 21.7958L20.0359 21.6304Z" fill="#DA0021"/>
<path d="M22.25 4.48828H19.625V3.61328C19.6236 3.14958 19.4388 2.70526 19.1109 2.37737C18.783 2.04949 18.3387 1.86467 17.875 1.86328H10.875C10.4113 1.86467 9.96698 2.04949 9.63909 2.37737C9.3112 2.70526 9.12638 3.14958 9.125 3.61328V4.48828H6.5C6.0363 4.48967 5.59198 4.67449 5.26409 5.00237C4.9362 5.33026 4.75138 5.77458 4.75 6.23828V24.6133C4.75138 25.077 4.9362 25.5213 5.26409 25.8492C5.59198 26.1771 6.0363 26.3619 6.5 26.3633H12.625V24.6133H6.5V6.23828H9.125V8.86328H19.625V6.23828H22.25V10.6133H24V6.23828C23.9986 5.77458 23.8138 5.33026 23.4859 5.00237C23.158 4.67449 22.7137 4.48967 22.25 4.48828ZM17.875 7.11328H10.875V3.61328H17.875V7.11328Z" fill="#DA0021"/>
</g>
<defs>
<clipPath id="clip0_1677_45116">
<rect width="28" height="28" fill="white" transform="translate(0.375 0.113281)"/>
</clipPath>
</defs>
</svg>
