<svg width="11" height="7" viewBox="0 0 11 7" fill="none" xmlns="http://www.w3.org/2000/svg">
<path d="M5.00124 5.85339L5.00115 5.85339C4.77827 5.85245 4.56468 5.764 4.40638 5.60711C4.4063 5.60703 4.40623 5.60696 4.40615 5.60689L0.406588 1.60732L0.406476 1.60721C0.246332 1.4474 0.15623 1.23052 0.155991 1.00429C0.155751 0.778048 0.245395 0.560982 0.4052 0.400838C0.565005 0.240695 0.781881 0.150593 1.00812 0.150353C1.12014 0.150235 1.23109 0.172182 1.33463 0.214941C1.43807 0.25766 1.53209 0.320316 1.61134 0.399338C1.61142 0.399413 1.61149 0.399488 1.61157 0.399563L4.89418 3.69918L5.00039 3.80594L5.10673 3.69931L8.39751 0.399525C8.39755 0.399491 8.39758 0.399456 8.39762 0.399421C8.4769 0.320282 8.57098 0.257525 8.6745 0.21473C8.77807 0.171916 8.88905 0.149921 9.00112 0.15C9.11319 0.150079 9.22415 0.172231 9.32765 0.21519C9.43116 0.25815 9.52519 0.321076 9.60438 0.400376C9.68357 0.479676 9.74636 0.573797 9.78918 0.677364C9.83199 0.780932 9.85398 0.891918 9.85391 1.00399C9.85383 1.11605 9.83168 1.22701 9.78872 1.33052C9.74576 1.43402 9.68283 1.52806 9.60353 1.60724L9.60346 1.60732L5.60389 5.60689C5.6038 5.60698 5.6037 5.60707 5.60361 5.60716C5.52435 5.68571 5.43039 5.74788 5.3271 5.79013C5.22369 5.83242 5.11296 5.85392 5.00124 5.85339Z" fill="#666666" stroke="white" stroke-width="0.3"/>
</svg>
