<svg width="29" height="29" viewBox="0 0 29 29" fill="none" xmlns="http://www.w3.org/2000/svg">
<path d="M22.5417 3.61458V24.6146H15.5417V20.5312H13.2083V24.6146H6.20833V3.61458H22.5417ZM17.875 8.28125H20.2083V5.94792H17.875V8.28125ZM13.2083 8.28125H15.5417V5.94792H13.2083V8.28125ZM8.54167 8.28125H10.875V5.94792H8.54167V8.28125ZM17.875 12.9479H20.2083V10.6146H17.875V12.9479ZM13.2083 12.9479H15.5417V10.6146H13.2083V12.9479ZM8.54167 12.9479H10.875V10.6146H8.54167V12.9479ZM17.875 17.6146H20.2083V15.2812H17.875V17.6146ZM13.2083 17.6146H15.5417V15.2812H13.2083V17.6146ZM8.54167 17.6146H10.875V15.2812H8.54167V17.6146ZM17.875 22.2812H20.2083V19.9479H17.875V22.2812ZM8.54167 22.2812H10.875V19.9479H8.54167V22.2812ZM24.875 1.28125H3.875V26.9479H24.875V1.28125Z" fill="#DA0021"/>
</svg>
