<svg width="20" height="20" viewBox="0 0 20 20" fill="none" xmlns="http://www.w3.org/2000/svg">
<path d="M17.5002 14.1663V6.66634H5.8335V14.1663H17.5002ZM17.5002 2.49967C17.9422 2.49967 18.3661 2.67527 18.6787 2.98783C18.9912 3.30039 19.1668 3.72431 19.1668 4.16634V14.1663C19.1668 14.6084 18.9912 15.0323 18.6787 15.3449C18.3661 15.6574 17.9422 15.833 17.5002 15.833H5.8335C5.39147 15.833 4.96755 15.6574 4.65498 15.3449C4.34242 15.0323 4.16683 14.6084 4.16683 14.1663V4.16634C4.16683 3.72431 4.34242 3.30039 4.65498 2.98783C4.96755 2.67527 5.39147 2.49967 5.8335 2.49967H6.66683V0.833008H8.3335V2.49967H15.0002V0.833008H16.6668V2.49967H17.5002ZM2.50016 17.4997H14.1668V19.1663H2.50016C2.05814 19.1663 1.63421 18.9907 1.32165 18.6782C1.00909 18.3656 0.833496 17.9417 0.833496 17.4997V7.49967H2.50016V17.4997ZM15.8335 12.4997H12.5002V9.16634H15.8335V12.4997Z" fill="#FFFCFD"/>
</svg>
