<svg width="36" height="37" viewBox="0 0 36 37" fill="none" xmlns="http://www.w3.org/2000/svg">
<path d="M18 0.339355C14.4399 0.339355 10.9598 1.39504 7.99974 3.3729C5.03966 5.35077 2.73255 8.16198 1.37018 11.4511C0.00779915 14.7401 -0.348661 18.3593 0.345873 21.851C1.04041 25.3426 2.75474 28.5499 5.27209 31.0673C7.78943 33.5846 10.9967 35.299 14.4884 35.9935C17.98 36.688 21.5992 36.3316 24.8883 34.9692C28.1774 33.6068 30.9886 31.2997 32.9665 28.3396C34.9443 25.3795 36 21.8994 36 18.3394C36 13.5655 34.1036 8.98709 30.7279 5.61143C27.3523 2.23578 22.7739 0.339355 18 0.339355V0.339355ZM22.5 12.3394H20.475C19.668 12.3394 19.5 12.6714 19.5 13.5064V15.3394H22.5L22.186 18.3394H19.5V28.8394H15V18.3394H12V15.3394H15V11.8774C15 9.22336 16.4 7.83936 19.543 7.83936H22.5V12.3394Z" fill="#1E1E1E"/>
</svg>
