<svg width="29" height="29" viewBox="0 0 29 29" fill="none" xmlns="http://www.w3.org/2000/svg">
<path d="M22.5417 16.4453H6.20833C4.91967 16.4453 3.875 17.49 3.875 18.7786V22.2786C3.875 23.5673 4.91967 24.612 6.20833 24.612H22.5417C23.8303 24.612 24.875 23.5673 24.875 22.2786V18.7786C24.875 17.49 23.8303 16.4453 22.5417 16.4453Z" stroke="#DA0021" stroke-width="2"/>
<path d="M12.0417 4.19531H6.20833C5.58949 4.19531 4.996 4.44115 4.55842 4.87873C4.12083 5.31631 3.875 5.90981 3.875 6.52865V10.0286C3.875 10.6475 4.12083 11.241 4.55842 11.6786C4.996 12.1161 5.58949 12.362 6.20833 12.362H12.0417" stroke="#DA0021" stroke-width="2" stroke-linecap="round"/>
<path d="M20.2087 12.9466C22.786 12.9466 24.8753 10.8573 24.8753 8.27995C24.8753 5.70262 22.786 3.61328 20.2087 3.61328C17.6313 3.61328 15.542 5.70262 15.542 8.27995C15.542 10.8573 17.6313 12.9466 20.2087 12.9466Z" stroke="#DA0021" stroke-width="2"/>
<path d="M20.208 10.0312C21.1745 10.0312 21.958 9.24775 21.958 8.28125C21.958 7.31475 21.1745 6.53125 20.208 6.53125C19.2415 6.53125 18.458 7.31475 18.458 8.28125C18.458 9.24775 19.2415 10.0312 20.208 10.0312Z" fill="#DA0021"/>
</svg>
