<svg width="12" height="13" viewBox="0 0 12 13" fill="none" xmlns="http://www.w3.org/2000/svg">
<path d="M7.33342 6V11.2533C7.36009 11.4533 7.29342 11.6667 7.14009 11.8067C7.07841 11.8685 7.00515 11.9175 6.9245 11.951C6.84385 11.9844 6.7574 12.0016 6.67009 12.0016C6.58278 12.0016 6.49632 11.9844 6.41567 11.951C6.33502 11.9175 6.26176 11.8685 6.20009 11.8067L4.86009 10.4667C4.78738 10.3956 4.73209 10.3087 4.69855 10.2127C4.66501 10.1167 4.65413 10.0142 4.66675 9.91333V6H4.64675L0.806754 1.08C0.698493 0.94102 0.649643 0.764839 0.670879 0.589953C0.692115 0.415068 0.781711 0.255698 0.920087 0.146667C1.04675 0.0533334 1.18675 0 1.33342 0H10.6668C10.8134 0 10.9534 0.0533334 11.0801 0.146667C11.2185 0.255698 11.3081 0.415068 11.3293 0.589953C11.3505 0.764839 11.3017 0.94102 11.1934 1.08L7.35342 6H7.33342Z" fill="#8A8485"/>
</svg>
