<svg width="29" height="29" viewBox="0 0 29 29" fill="none" xmlns="http://www.w3.org/2000/svg">
<g clip-path="url(#clip0_1677_45131)">
<path d="M14.375 23.934C15.6571 25.0841 17.3193 25.7191 19.0417 25.7166C22.9074 25.7166 26.0417 22.5824 26.0417 18.7166C26.0417 15.6244 24.0368 13 21.256 12.0742" stroke="#DA0021" stroke-width="2" stroke-linecap="round" stroke-linejoin="round"/>
<path d="M16.2244 16.1517C16.5365 16.945 16.708 17.8083 16.708 18.7125C16.708 22.5782 13.5738 25.7125 9.70801 25.7125C5.84167 25.7125 2.70801 22.5782 2.70801 18.7125C2.70801 15.6121 4.72342 12.9824 7.51584 12.0625" stroke="#DA0021" stroke-width="2" stroke-linecap="round" stroke-linejoin="round"/>
<path d="M14.375 16.3828C18.2407 16.3828 21.375 13.2486 21.375 9.38281C21.375 5.51648 18.2407 2.38281 14.375 2.38281C10.5092 2.38281 7.375 5.51648 7.375 9.38281C7.375 13.2486 10.5092 16.3828 14.375 16.3828Z" stroke="#DA0021" stroke-width="2" stroke-linecap="round" stroke-linejoin="round"/>
</g>
<defs>
<clipPath id="clip0_1677_45131">
<rect width="28" height="28" fill="white" transform="translate(0.375 0.113281)"/>
</clipPath>
</defs>
</svg>
