<svg width="22" height="20" viewBox="0 0 22 20" fill="none" xmlns="http://www.w3.org/2000/svg">
<path fill-rule="evenodd" clip-rule="evenodd" d="M1.46888 7.97034C1.53854 7.9005 1.62131 7.84508 1.71243 7.80727C1.80354 7.76946 1.90123 7.75 1.99988 7.75C2.09853 7.75 2.19621 7.76946 2.28733 7.80727C2.37844 7.84508 2.46121 7.9005 2.53088 7.97034L10.9999 16.4408L19.4689 7.97034C19.6097 7.82951 19.8007 7.75039 19.9999 7.75039C20.199 7.75039 20.39 7.82951 20.5309 7.97034C20.6717 8.11117 20.7508 8.30218 20.7508 8.50134C20.7508 8.7005 20.6717 8.89151 20.5309 9.03234L11.5309 18.0323C11.4612 18.1022 11.3784 18.1576 11.2873 18.1954C11.1962 18.2332 11.0985 18.2527 10.9999 18.2527C10.9012 18.2527 10.8035 18.2332 10.7124 18.1954C10.6213 18.1576 10.5385 18.1022 10.4689 18.0323L1.46888 9.03234C1.39903 8.96267 1.34362 8.87991 1.30581 8.78879C1.268 8.69767 1.24854 8.59999 1.24854 8.50134C1.24854 8.40269 1.268 8.30501 1.30581 8.21389C1.34362 8.12277 1.39903 8.04001 1.46888 7.97034V7.97034Z" stroke="#FFFCFD" stroke-width="2"/>
<path fill-rule="evenodd" clip-rule="evenodd" d="M1.46888 1.97034C1.53854 1.9005 1.62131 1.84508 1.71243 1.80727C1.80354 1.76946 1.90123 1.75 1.99988 1.75C2.09853 1.75 2.19621 1.76946 2.28733 1.80727C2.37844 1.84508 2.46121 1.9005 2.53088 1.97034L10.9999 10.4408L19.4689 1.97034C19.5386 1.90061 19.6214 1.84529 19.7125 1.80756C19.8036 1.76982 19.9013 1.75039 19.9999 1.75039C20.0985 1.75039 20.1961 1.76982 20.2873 1.80756C20.3784 1.84529 20.4611 1.90061 20.5309 1.97034C20.6006 2.04007 20.6559 2.12286 20.6937 2.21397C20.7314 2.30507 20.7508 2.40272 20.7508 2.50134C20.7508 2.59996 20.7314 2.69761 20.6937 2.78872C20.6559 2.87982 20.6006 2.96261 20.5309 3.03234L11.5309 12.0323C11.4612 12.1022 11.3784 12.1576 11.2873 12.1954C11.1962 12.2332 11.0985 12.2527 10.9999 12.2527C10.9012 12.2527 10.8035 12.2332 10.7124 12.1954C10.6213 12.1576 10.5385 12.1022 10.4689 12.0323L1.46888 3.03234C1.39903 2.96267 1.34362 2.87991 1.30581 2.78879C1.268 2.69767 1.24854 2.59999 1.24854 2.50134C1.24854 2.40269 1.268 2.30501 1.30581 2.21389C1.34362 2.12277 1.39903 2.04001 1.46888 1.97034V1.97034Z" stroke="#FFFCFD" stroke-width="2"/>
</svg>
