<svg width="368" height="234" viewBox="0 0 368 234" fill="none" xmlns="http://www.w3.org/2000/svg">
<g clip-path="url(#clip0_704:32001)">
<path d="M226.22 146.828C226.42 146.788 246.43 143.138 269.04 131.058C289.93 119.908 317.38 99.0784 329.55 63.2184L328.38 62.8184C316.34 98.2984 289.15 118.918 268.46 129.958C246.02 141.938 226.2 145.568 226 145.598L226.22 146.828Z" fill="#FFD1CF"/>
<path d="M240.82 117.827C238.9 128.727 247.35 139.337 247.35 139.337C247.35 139.337 258.92 132.267 260.84 121.357C262.76 110.457 259.84 100.827 254.31 99.8468C248.78 98.8768 242.74 106.927 240.82 117.827Z" fill="#FFD1CF"/>
<path d="M270.63 140.697C260.7 135.797 248.16 140.947 248.16 140.947C248.16 140.947 251.72 154.027 261.65 158.927C271.58 163.827 281.64 163.707 284.12 158.677C286.6 153.647 280.56 145.597 270.63 140.697Z" fill="#FFD1CF"/>
<path d="M271.85 101.887C271.72 112.957 281.78 122.057 281.78 122.057C281.78 122.057 292.05 113.207 292.18 102.127C292.31 91.0473 287.87 82.0273 282.25 81.9573C276.64 81.8973 271.99 90.8173 271.85 101.887Z" fill="#FFD1CF"/>
<path d="M304.98 119.628C294.39 116.408 282.84 123.518 282.84 123.518C282.84 123.518 288.47 135.858 299.06 139.078C309.65 142.298 319.56 140.558 321.2 135.188C322.84 129.808 315.58 122.848 304.98 119.628Z" fill="#FFD1CF"/>
<path d="M296.47 78.5283C299.85 89.0683 312.27 94.5183 312.27 94.5183C312.27 94.5183 319.21 82.8683 315.83 72.3283C312.45 61.7883 305.38 54.6283 300.03 56.3383C294.68 58.0483 293.09 67.9783 296.47 78.5283Z" fill="#FFD1CF"/>
<path d="M333.5 84.8683C322.43 85.1683 313.73 95.5683 313.73 95.5683C313.73 95.5683 322.97 105.488 334.04 105.188C345.11 104.888 353.96 100.108 353.81 94.4883C353.66 88.8683 344.57 84.5683 333.5 84.8683Z" fill="#FFD1CF"/>
<path d="M308.53 51.1478C313.89 60.8378 327.12 63.7778 327.12 63.7778C327.12 63.7778 331.67 51.0078 326.32 41.3178C320.97 31.6278 312.64 25.9678 307.72 28.6778C302.81 31.3978 303.17 41.4578 308.53 51.1478Z" fill="#FFD1CF"/>
<path d="M346.09 50.1983C335.29 52.6283 328.77 64.5183 328.77 64.5183C328.77 64.5183 339.76 72.4583 350.56 70.0283C361.36 67.5983 369.12 61.1883 367.88 55.7083C366.64 50.2283 356.9 47.7683 346.09 50.1983Z" fill="#FFD1CF"/>
<path d="M123.33 233.529L277.33 271.469L318.84 102.979C320.29 97.0988 316.7 91.1588 310.81 89.7088L178.11 57.0188C172.23 55.5688 166.29 59.1588 164.84 65.0488L123.33 233.529Z" fill="#73C9DD"/>
<path d="M288.49 156.298L217.61 138.838" stroke="white" stroke-width="2.1246" stroke-miterlimit="10"/>
<path d="M293.44 136.239L174.01 106.809" stroke="white" stroke-width="2.1246" stroke-miterlimit="10"/>
<path d="M282.75 179.608L188.57 156.398" stroke="white" stroke-width="2.1246" stroke-miterlimit="10"/>
<path d="M277.97 199.028L204.5 180.918" stroke="white" stroke-width="2.1246" stroke-miterlimit="10"/>
<path d="M273.18 218.44L153.75 189.02" stroke="white" stroke-width="2.1246" stroke-miterlimit="10"/>
<path d="M268.4 237.859L148.97 208.439" stroke="white" stroke-width="2.1246" stroke-miterlimit="10"/>
<path d="M222.83 233.529L68.8301 271.469L27.3101 102.979C25.8601 97.0988 29.4501 91.1588 35.3401 89.7088L168.04 57.0188C173.92 55.5688 179.86 59.1588 181.31 65.0488L222.83 233.529Z" fill="#73C9DD"/>
<path d="M57.6602 156.298L128.54 138.838" stroke="white" stroke-width="2.1246" stroke-miterlimit="10"/>
<path d="M52.72 136.239L172.15 106.809" stroke="white" stroke-width="2.1246" stroke-miterlimit="10"/>
<path d="M63.4001 179.608L157.59 156.398" stroke="white" stroke-width="2.1246" stroke-miterlimit="10"/>
<path d="M68.1902 199.028L141.66 180.918" stroke="white" stroke-width="2.1246" stroke-miterlimit="10"/>
<path d="M72.97 218.44L192.4 189.02" stroke="white" stroke-width="2.1246" stroke-miterlimit="10"/>
<path d="M77.76 237.859L197.18 208.439" stroke="white" stroke-width="2.1246" stroke-miterlimit="10"/>
<path d="M255 76.5195L274 81.0195L258.4 232.52L250.5 78.0195L255 76.5195Z" fill="#5ABCCC"/>
<path d="M104.5 73.0195L85.5 77.5195L101.1 233.52L109 79.0195L104.5 73.0195Z" fill="#5ABCCC"/>
<path d="M258.4 238.51H99.79V64.97C99.79 58.91 104.7 54 110.76 54H247.43C253.49 54 258.4 58.91 258.4 64.97V238.51Z" fill="#C8F0FC"/>
<path d="M116.5 124.01H196.5" stroke="white" stroke-width="2.1246" stroke-miterlimit="10"/>
<path d="M116.5 148.01H239.5" stroke="white" stroke-width="2.1246" stroke-miterlimit="10"/>
<path d="M116.5 168.01H207.5" stroke="white" stroke-width="2.1246" stroke-miterlimit="10"/>
<path d="M116.5 188.01H239.5" stroke="white" stroke-width="2.1246" stroke-miterlimit="10"/>
<path d="M116.5 208.01H239.5" stroke="white" stroke-width="2.1246" stroke-miterlimit="10"/>
<path d="M142 84.9898C146.965 84.9898 150.99 80.9648 150.99 75.9998C150.99 71.0347 146.965 67.0098 142 67.0098C137.035 67.0098 133.01 71.0347 133.01 75.9998C133.01 80.9648 137.035 84.9898 142 84.9898Z" fill="white"/>
<path d="M120.5 110.01C120.5 98.1398 130.13 88.5098 142 88.5098C153.87 88.5098 163.5 98.1398 163.5 110.01" fill="white"/>
<path d="M258.25 65.7598C258.25 59.6998 253.5 54.0098 245.5 54.0098V65.2598L258.25 65.7598Z" fill="#AAEBF2"/>
<path d="M230.497 245.843C230.527 245.683 233.437 229.753 243.047 211.763C251.927 195.143 268.497 173.293 297.027 163.613L297.337 164.543C269.107 174.123 252.697 195.763 243.907 212.223C234.367 230.083 231.487 245.853 231.457 246.013L230.497 245.843Z" fill="#FFD1CF"/>
<path d="M253.577 234.222C244.897 235.752 236.467 229.022 236.467 229.022C236.467 229.022 242.097 219.812 250.777 218.292C259.457 216.762 267.117 219.092 267.887 223.492C268.657 227.892 262.247 232.692 253.577 234.222Z" fill="#FFD1CF"/>
<path d="M235.377 210.492C239.277 218.392 235.177 228.372 235.177 228.372C235.177 228.372 224.767 225.542 220.867 217.642C216.967 209.742 217.057 201.732 221.067 199.762C225.077 197.792 231.477 202.592 235.377 210.492Z" fill="#FFD1CF"/>
<path d="M266.257 209.522C257.447 209.622 250.207 201.622 250.207 201.622C250.207 201.622 257.257 193.452 266.067 193.342C274.877 193.242 282.057 196.772 282.117 201.242C282.167 205.712 275.067 209.422 266.257 209.522Z" fill="#FFD1CF"/>
<path d="M252.147 183.163C254.707 191.593 249.057 200.783 249.057 200.783C249.057 200.783 239.237 196.303 236.677 187.873C234.117 179.443 235.497 171.553 239.767 170.253C244.037 168.953 249.577 174.733 252.147 183.163Z" fill="#FFD1CF"/>
<path d="M284.847 189.942C276.457 187.252 272.127 177.372 272.127 177.372C272.127 177.372 281.397 171.852 289.787 174.542C298.177 177.232 303.877 182.862 302.507 187.112C301.137 191.362 293.237 192.632 284.847 189.942Z" fill="#FFD1CF"/>
<path d="M279.807 160.462C279.567 169.272 271.297 176.192 271.297 176.192C271.297 176.192 263.407 168.832 263.637 160.032C263.877 151.222 267.687 144.182 272.147 144.302C276.607 144.422 280.037 151.662 279.807 160.462Z" fill="#FFD1CF"/>
<path d="M306.637 180.342C298.927 176.082 296.587 165.542 296.587 165.542C296.587 165.542 306.747 161.922 314.457 166.182C322.167 170.442 326.667 177.072 324.507 180.982C322.347 184.892 314.347 184.602 306.637 180.342Z" fill="#FFD1CF"/>
<path d="M307.397 150.442C305.457 159.042 296.007 164.232 296.007 164.232C296.007 164.232 289.687 155.492 291.617 146.892C293.547 138.292 298.657 132.122 303.007 133.102C307.367 134.092 309.327 141.852 307.397 150.442Z" fill="#FFD1CF"/>
</g>
<defs>
<clipPath id="clip0_704:32001">
<rect width="368" height="234" fill="white"/>
</clipPath>
</defs>
</svg>
