<svg width="120" height="120" viewBox="0 0 120 120" fill="none" xmlns="http://www.w3.org/2000/svg">
<g clip-path="url(#clip0_624:28828)">
<path d="M88.884 9.2002H0V111.344H88.884V9.2002Z" stroke="black" stroke-miterlimit="10"/>
<path d="M5.36426 19.6406H76.1883" stroke="black" stroke-miterlimit="10"/>
<path d="M5.36426 29.5166H44.3043" stroke="black" stroke-miterlimit="10"/>
<path d="M5.36426 39.1084H44.3043" stroke="black" stroke-miterlimit="10"/>
<path d="M5.36426 49.2686H76.1883" stroke="black" stroke-miterlimit="10"/>
<path d="M5.36426 59.1445H76.1883" stroke="black" stroke-miterlimit="10"/>
<path d="M5.36426 69.0205H76.1883" stroke="black" stroke-miterlimit="10"/>
<path d="M5.36426 78.8965H76.1883" stroke="black" stroke-miterlimit="10"/>
<path d="M83.0361 88.6643L72.3241 97.8843L71.3721 83.6563L95.8601 26.6123L107.528 31.6243L83.0361 88.6643Z" fill="#FED838" stroke="black" stroke-miterlimit="10"/>
<path d="M30.7565 89.0518H6.77246V101.468H30.7565V89.0518Z" fill="url(#paint0_linear_624:28828)"/>
<path d="M62.36 89.0518H38.376V101.468H62.36V89.0518Z" fill="url(#paint1_linear_624:28828)"/>
<path d="M107.529 31.6199L95.8623 26.6113L71.3733 83.653L83.0397 88.6615L107.529 31.6199Z" fill="#FED838" stroke="black" stroke-miterlimit="10"/>
<path d="M75.6236 26.4121H49.0996V43.0601H75.6236V26.4121Z" stroke="black" stroke-miterlimit="10"/>
</g>
<defs>
<linearGradient id="paint0_linear_624:28828" x1="18.7666" y1="82.8458" x2="18.7666" y2="134.483" gradientUnits="userSpaceOnUse">
<stop stop-color="#FED838"/>
<stop offset="0.0207" stop-color="#FED93D" stop-opacity="0.9793"/>
<stop offset="0.5061" stop-color="#FFEDA4" stop-opacity="0.4939"/>
<stop offset="0.8424" stop-color="#FFFAE6" stop-opacity="0.1576"/>
<stop offset="1" stop-color="white" stop-opacity="0"/>
</linearGradient>
<linearGradient id="paint1_linear_624:28828" x1="50.369" y1="82.8458" x2="50.369" y2="134.483" gradientUnits="userSpaceOnUse">
<stop stop-color="#FED838"/>
<stop offset="0.0207" stop-color="#FED93D" stop-opacity="0.9793"/>
<stop offset="0.5061" stop-color="#FFEDA4" stop-opacity="0.4939"/>
<stop offset="0.8424" stop-color="#FFFAE6" stop-opacity="0.1576"/>
<stop offset="1" stop-color="white" stop-opacity="0"/>
</linearGradient>
<clipPath id="clip0_624:28828">
<rect width="120" height="120" fill="white"/>
</clipPath>
</defs>
</svg>
