<svg width="15" height="14" viewBox="0 0 15 14" fill="none" xmlns="http://www.w3.org/2000/svg">
<path d="M0.175781 2.0865C0.175781 1.22539 0.726892 0.743164 1.46745 0.743164C2.208 0.743164 2.75911 1.22539 2.75911 2.0865V11.8704C2.75911 12.732 2.208 13.2137 1.46745 13.2137C0.726892 13.2137 0.175781 12.732 0.175781 11.8704V2.0865ZM4.30911 2.17316C4.30911 1.38039 4.86023 0.846497 5.63523 0.846497H8.49523C12.3536 0.846497 14.5586 3.32705 14.5586 7.15094C14.558 10.7682 12.2158 13.1109 8.66689 13.1109H5.66967C5.10134 13.1109 4.30911 12.8004 4.30911 11.8193V2.17316ZM6.89245 10.7337H8.63245C10.8547 10.7337 11.8702 9.09761 11.8702 7.03039C11.8702 4.82539 10.8374 3.22372 8.45967 3.22372H6.89189V10.7337H6.89245Z" fill="#DA0021"/>
</svg>
