<svg width="24" height="24" viewBox="0 0 24 24" fill="none" xmlns="http://www.w3.org/2000/svg">
<path d="M13.5111 8.06606C13.5111 8.36962 13.4211 8.66636 13.2525 8.91875C13.0838 9.17115 12.8441 9.36787 12.5637 9.48404C12.2832 9.60021 11.9746 9.6306 11.6769 9.57138C11.3792 9.51216 11.1057 9.36598 10.8911 9.15133C10.6764 8.93669 10.5302 8.66321 10.471 8.36549C10.4118 8.06776 10.4422 7.75916 10.5583 7.47871C10.6745 7.19826 10.8712 6.95856 11.1236 6.78991C11.376 6.62127 11.6728 6.53125 11.9763 6.53125C12.3834 6.53125 12.7738 6.69295 13.0616 6.98079C13.3494 7.26862 13.5111 7.659 13.5111 8.06606ZM14.8316 16.6003C14.8316 16.791 14.7558 16.974 14.621 17.1089C14.4861 17.2437 14.3032 17.3195 14.1124 17.3195H10.5552C10.3644 17.3195 10.1815 17.2437 10.0466 17.1089C9.91171 16.974 9.83594 16.791 9.83594 16.6003V15.8811C9.83594 15.6903 9.91171 15.5074 10.0466 15.3725C10.1815 15.2376 10.3644 15.1619 10.5552 15.1619H11.2744V12.6691H10.5552C10.3644 12.6691 10.1815 12.5933 10.0466 12.4584C9.91171 12.3235 9.83594 12.1406 9.83594 11.9498V11.2306C9.83594 11.0399 9.91171 10.8569 10.0466 10.7221C10.1815 10.5872 10.3644 10.5114 10.5552 10.5114H12.6912C12.7857 10.5114 12.8792 10.53 12.9665 10.5661C13.0537 10.6023 13.133 10.6553 13.1998 10.7221C13.2666 10.7888 13.3196 10.8681 13.3557 10.9554C13.3918 11.0426 13.4104 11.1362 13.4104 11.2306V15.1777H14.1297C14.3204 15.1777 14.5033 15.2535 14.6382 15.3883C14.7731 15.5232 14.8489 15.7062 14.8489 15.8969L14.8316 16.6003Z" fill="black"/>
<path d="M12 2C10.0222 2 8.08879 2.58649 6.4443 3.6853C4.79981 4.78412 3.51809 6.3459 2.76121 8.17316C2.00433 10.0004 1.8063 12.0111 2.19215 13.9509C2.578 15.8907 3.53041 17.6725 4.92894 19.0711C6.32746 20.4696 8.10929 21.422 10.0491 21.8078C11.9889 22.1937 13.9996 21.9957 15.8268 21.2388C17.6541 20.4819 19.2159 19.2002 20.3147 17.5557C21.4135 15.9112 22 13.9778 22 12C22 10.6868 21.7413 9.38642 21.2388 8.17316C20.7362 6.95991 19.9997 5.85752 19.0711 4.92893C18.1425 4.00035 17.0401 3.26375 15.8268 2.7612C14.6136 2.25866 13.3132 2 12 2ZM12 4.15765C13.5511 4.15765 15.0673 4.6176 16.357 5.47933C17.6466 6.34105 18.6518 7.56586 19.2454 8.99886C19.839 10.4319 19.9943 12.0087 19.6917 13.53C19.3891 15.0512 18.6421 16.4486 17.5454 17.5454C16.4486 18.6421 15.0512 19.3891 13.53 19.6917C12.0087 19.9943 10.4319 19.8389 8.99887 19.2454C7.56587 18.6518 6.34106 17.6466 5.47933 16.357C4.6176 15.0673 4.15766 13.5511 4.15766 12C4.15766 9.92008 4.9839 7.92535 6.45463 6.45462C7.92535 4.9839 9.92008 4.15765 12 4.15765Z" fill="black"/>
</svg>
