<svg width="36" height="37" viewBox="0 0 36 37" fill="none" xmlns="http://www.w3.org/2000/svg">
<path d="M22.243 9.79236C21.136 9.73936 20.8 9.73236 18 9.73236C15.2 9.73236 14.865 9.74236 13.758 9.79236C10.91 9.92236 9.58401 11.2714 9.45801 14.0924C9.40001 15.2044 9.39201 15.5394 9.39201 18.3394C9.39201 21.1394 9.40401 21.4744 9.45301 22.5824C9.58301 25.4014 10.903 26.7564 13.753 26.8874C14.859 26.9364 15.191 26.9494 17.995 26.9494C20.799 26.9494 21.131 26.9384 22.238 26.8874C25.087 26.7584 26.411 25.4054 26.543 22.5824C26.592 21.4754 26.603 21.1424 26.603 18.3394C26.603 15.5364 26.592 15.2044 26.543 14.0974C26.417 11.2734 25.089 9.92236 22.243 9.79236ZM18 23.7314C16.9336 23.7314 15.8911 23.4151 15.0044 22.8226C14.1177 22.2302 13.4266 21.388 13.0184 20.4028C12.6103 19.4175 12.5036 18.3334 12.7116 17.2874C12.9197 16.2415 13.4332 15.2807 14.1873 14.5266C14.9414 13.7726 15.9021 13.259 16.9481 13.051C17.994 12.8429 19.0782 12.9497 20.0634 13.3578C21.0487 13.7659 21.8908 14.457 22.4833 15.3437C23.0758 16.2304 23.392 17.2729 23.392 18.3394C23.392 19.7694 22.8239 21.1409 21.8127 22.1521C20.8015 23.1633 19.4301 23.7314 18 23.7314ZM23.606 13.9954C23.3568 13.9954 23.1132 13.9215 22.906 13.783C22.6988 13.6446 22.5373 13.4478 22.4419 13.2175C22.3466 12.9873 22.3216 12.734 22.3702 12.4895C22.4188 12.2451 22.5388 12.0206 22.7151 11.8444C22.8913 11.6682 23.1158 11.5482 23.3602 11.4996C23.6046 11.4509 23.858 11.4759 24.0882 11.5713C24.3184 11.6666 24.5152 11.8281 24.6537 12.0353C24.7921 12.2425 24.866 12.4862 24.866 12.7354C24.866 12.9008 24.8334 13.0647 24.7701 13.2175C24.7068 13.3704 24.614 13.5093 24.497 13.6263C24.38 13.7433 24.2411 13.8361 24.0882 13.8994C23.9353 13.9628 23.7715 13.9954 23.606 13.9954ZM21.5 18.3394C21.5 19.0316 21.2947 19.7083 20.9102 20.2839C20.5256 20.8594 19.9789 21.308 19.3394 21.5729C18.6999 21.8378 17.9961 21.9072 17.3172 21.7721C16.6383 21.6371 16.0146 21.3037 15.5251 20.8142C15.0357 20.3247 14.7023 19.7011 14.5673 19.0222C14.4322 18.3432 14.5015 17.6395 14.7664 17C15.0313 16.3604 15.4799 15.8138 16.0555 15.4292C16.6311 15.0446 17.3078 14.8394 18 14.8394C18.9283 14.8394 19.8185 15.2081 20.4749 15.8645C21.1313 16.5209 21.5 17.4111 21.5 18.3394ZM18 0.339355C14.4399 0.339355 10.9598 1.39504 7.99974 3.3729C5.03966 5.35077 2.73255 8.16198 1.37018 11.4511C0.00779915 14.7401 -0.348661 18.3593 0.345873 21.851C1.04041 25.3426 2.75474 28.5499 5.27209 31.0673C7.78943 33.5846 10.9967 35.299 14.4884 35.9935C17.98 36.688 21.5992 36.3316 24.8883 34.9692C28.1774 33.6068 30.9886 31.2997 32.9665 28.3396C34.9443 25.3795 36 21.8994 36 18.3394C36 13.5655 34.1036 8.98709 30.7279 5.61143C27.3523 2.23578 22.7739 0.339355 18 0.339355V0.339355ZM28.437 22.6684C28.264 26.4864 26.137 28.6014 22.33 28.7764C21.21 28.8274 20.851 28.8394 18 28.8394C15.149 28.8394 14.792 28.8274 13.671 28.7764C9.85501 28.6004 7.73801 26.4834 7.56301 22.6684C7.51201 21.5494 7.50001 21.1904 7.50001 18.3394C7.50001 15.4884 7.51201 15.1314 7.56301 14.0104C7.73801 10.1944 9.85701 8.07736 13.671 7.90336C14.792 7.85136 15.149 7.83936 18 7.83936C20.851 7.83936 21.21 7.85136 22.33 7.90436C26.147 8.07936 28.265 10.2044 28.437 14.0114C28.488 15.1314 28.5 15.4884 28.5 18.3404C28.5 21.1924 28.488 21.5494 28.437 22.6684Z" fill="#1E1E1E"/>
</svg>
