<svg width="22" height="24" viewBox="0 0 22 24" fill="none" xmlns="http://www.w3.org/2000/svg">
<path d="M0.0419922 10.012C0.0419922 4.20198 4.47533 0.445312 9.37532 0.445312C14.042 0.445312 18.2887 3.85198 18.6737 9.19531H21.3803C21.9053 9.19531 22.162 9.82531 21.7887 10.187L17.9503 14.0253C17.717 14.2586 17.3553 14.2586 17.122 14.0253L13.2837 10.187C13.2037 10.1054 13.1495 10.0022 13.1276 9.89017C13.1058 9.77809 13.1173 9.66207 13.1608 9.55648C13.2043 9.4509 13.2778 9.3604 13.3722 9.2962C13.4666 9.23199 13.5778 9.19692 13.692 9.19531H16.3287C15.967 5.39198 13.027 2.77865 9.37532 2.77865C5.46699 2.77865 2.37533 5.77698 2.37533 10.012C2.37533 12.742 4.65032 16.3586 9.37532 20.6753C10.122 19.987 10.8103 19.322 11.4403 18.6803C11.235 18.2752 11.1272 17.8278 11.1253 17.3736C11.1253 16.6001 11.4326 15.8582 11.9796 15.3113C12.5266 14.7643 13.2684 14.457 14.042 14.457C14.8155 14.457 15.5574 14.7643 16.1044 15.3113C16.6514 15.8582 16.9587 16.6001 16.9587 17.3736C16.9583 17.8248 16.8529 18.2697 16.6508 18.673C16.4488 19.0764 16.1556 19.4273 15.7946 19.6978C15.4335 19.9683 15.0144 20.151 14.5705 20.2316C14.1266 20.3122 13.6701 20.2883 13.237 20.162C12.327 21.1186 11.2887 22.0986 10.1453 23.102C9.70199 23.487 9.03699 23.487 8.59366 23.102C2.90032 18.0853 0.0419922 13.722 0.0419922 10.012Z" fill="#DA0021"/>
</svg>
