<svg width="36" height="37" viewBox="0 0 36 37" fill="none" xmlns="http://www.w3.org/2000/svg">
<path d="M18 0.339355C14.4399 0.339355 10.9598 1.39504 7.99974 3.3729C5.03966 5.35077 2.73255 8.16198 1.37018 11.4511C0.00779915 14.7401 -0.348661 18.3593 0.345873 21.851C1.04041 25.3426 2.75474 28.5499 5.27209 31.0673C7.78943 33.5846 10.9967 35.299 14.4884 35.9935C17.98 36.688 21.5992 36.3316 24.8883 34.9692C28.1774 33.6068 30.9886 31.2997 32.9665 28.3396C34.9443 25.3795 36 21.8994 36 18.3394C36 13.5655 34.1036 8.98709 30.7279 5.61143C27.3523 2.23578 22.7739 0.339355 18 0.339355V0.339355ZM15 24.3394H12V15.3394H15V24.3394ZM13.5 14.0024C13.1703 14.0051 12.8472 13.9099 12.5717 13.7287C12.2962 13.5475 12.0807 13.2885 11.9526 12.9847C11.8246 12.6808 11.7897 12.3458 11.8524 12.022C11.9151 11.6983 12.0725 11.4005 12.3048 11.1664C12.537 10.9323 12.8336 10.7725 13.1568 10.7073C13.48 10.6421 13.8154 10.6743 14.1202 10.8C14.4251 10.9257 14.6857 11.1391 14.8691 11.4132C15.0524 11.6872 15.1502 12.0096 15.15 12.3394C15.1516 12.7786 14.9787 13.2006 14.6693 13.5124C14.3599 13.8243 13.9393 14.0005 13.5 14.0024ZM25.5 24.3394H22.5V20.0474C22.5 17.2254 19.5 17.4644 19.5 20.0474V24.3394H16.5V15.3394H19.5V16.9784C20.808 14.5544 25.5 14.3784 25.5 19.3004V24.3394Z" fill="#1E1E1E"/>
</svg>
