<svg width="12" height="16" viewBox="0 0 12 16" fill="none" xmlns="http://www.w3.org/2000/svg">
<path d="M6 3.875C6.49728 3.875 6.97419 4.07254 7.32583 4.42417C7.67746 4.77581 7.875 5.25272 7.875 5.75C7.875 5.99623 7.8265 6.24005 7.73227 6.46753C7.63805 6.69502 7.49994 6.90172 7.32583 7.07583C7.15172 7.24994 6.94502 7.38805 6.71753 7.48227C6.49005 7.5765 6.24623 7.625 6 7.625C5.50272 7.625 5.02581 7.42746 4.67417 7.07583C4.32254 6.72419 4.125 6.24728 4.125 5.75C4.125 5.25272 4.32254 4.77581 4.67417 4.42417C5.02581 4.07254 5.50272 3.875 6 3.875ZM6 0.5C7.39239 0.5 8.72774 1.05312 9.71231 2.03769C10.6969 3.02226 11.25 4.35761 11.25 5.75C11.25 9.6875 6 15.5 6 15.5C6 15.5 0.75 9.6875 0.75 5.75C0.75 4.35761 1.30312 3.02226 2.28769 2.03769C3.27226 1.05312 4.60761 0.5 6 0.5ZM6 2C5.00544 2 4.05161 2.39509 3.34835 3.09835C2.64509 3.80161 2.25 4.75544 2.25 5.75C2.25 6.5 2.25 8 6 13.0325C9.75 8 9.75 6.5 9.75 5.75C9.75 4.75544 9.35491 3.80161 8.65165 3.09835C7.94839 2.39509 6.99456 2 6 2Z" fill="#DA0021"/>
</svg>
