<svg width="16" height="16" viewBox="0 0 16 16" fill="none" xmlns="http://www.w3.org/2000/svg">
<path fill-rule="evenodd" clip-rule="evenodd" d="M2.66536 3.16797C2.20817 3.16797 1.83203 3.54411 1.83203 4.0013V12.0013C1.83203 12.4585 2.20817 12.8346 2.66536 12.8346H13.332C13.7892 12.8346 14.1654 12.4585 14.1654 12.0013V4.0013C14.1654 3.54411 13.7892 3.16797 13.332 3.16797H2.66536ZM0.832031 4.0013C0.832031 2.99183 1.65589 2.16797 2.66536 2.16797H13.332C14.3415 2.16797 15.1654 2.99183 15.1654 4.0013V12.0013C15.1654 13.0108 14.3415 13.8346 13.332 13.8346H2.66536C1.65589 13.8346 0.832031 13.0108 0.832031 12.0013V4.0013Z" fill="#332F30"/>
<path fill-rule="evenodd" clip-rule="evenodd" d="M0.922458 3.71331C1.08082 3.48709 1.39258 3.43207 1.61881 3.59043L7.99874 8.05638L14.3787 3.59043C14.6049 3.43207 14.9167 3.48709 15.075 3.71331C15.2334 3.93954 15.1784 4.2513 14.9521 4.40966L8.28547 9.07633C8.11331 9.19684 7.88417 9.19684 7.71201 9.07633L1.04534 4.40966C0.819118 4.2513 0.764101 3.93954 0.922458 3.71331Z" fill="#332F30"/>
</svg>
