<svg width="28" height="16" viewBox="0 0 28 16" fill="none" xmlns="http://www.w3.org/2000/svg">
<path d="M22 16H1C0.734784 16 0.480444 15.8946 0.292908 15.707C0.105371 15.5195 0 15.2652 0 15C0 14.7348 0.105371 14.4805 0.292908 14.293C0.480444 14.1054 0.734784 14 1 14H22C22.2652 14 22.5196 14.1054 22.7071 14.293C22.8946 14.4805 23 14.7348 23 15C23 15.2652 22.8946 15.5195 22.7071 15.707C22.5196 15.8946 22.2652 16 22 16ZM17 9H1C0.734784 9 0.480444 8.89457 0.292908 8.70703C0.105371 8.5195 0 8.26522 0 8C0 7.73478 0.105371 7.4805 0.292908 7.29297C0.480444 7.10543 0.734784 7 1 7H17C17.2652 7 17.5196 7.10543 17.7071 7.29297C17.8946 7.4805 18 7.73478 18 8C18 8.26522 17.8946 8.5195 17.7071 8.70703C17.5196 8.89457 17.2652 9 17 9ZM27 2H1C0.734784 2 0.480444 1.89457 0.292908 1.70703C0.105371 1.51949 0 1.26522 0 1C0 0.734784 0.105371 0.480505 0.292908 0.292969C0.480444 0.105432 0.734784 0 1 0H27C27.2652 0 27.5196 0.105432 27.7071 0.292969C27.8946 0.480505 28 0.734784 28 1C28 1.26522 27.8946 1.51949 27.7071 1.70703C27.5196 1.89457 27.2652 2 27 2Z" fill="#FFFCFD"/>
</svg>
