<svg width="20" height="18" viewBox="0 0 20 18" fill="none" xmlns="http://www.w3.org/2000/svg">
<path d="M10 0C4.5 0 0 3.6 0 8C0 10.1 1 12.1 2.8 13.5C2.8 14.1 2.4 15.7 0 18C0 18 3.5 18 6.5 15.5C7.6 15.8 8.8 16 10 16C15.5 16 20 12.4 20 8C20 3.6 15.5 0 10 0ZM11 12H9V10H11V12ZM12.8 7C12.5 7.4 12.1 7.6 11.7 7.8C11.4 8 11.3 8.1 11.2 8.3C11 8.5 11 8.7 11 9H9C9 8.5 9.1 8.2 9.3 7.9C9.5 7.7 9.9 7.4 10.4 7.1C10.7 7 10.9 6.8 11 6.6C11.1 6.4 11.2 6.1 11.2 5.9C11.2 5.6 11.1 5.4 10.9 5.2C10.7 5 10.4 4.9 10.1 4.9C9.8 4.9 9.6 5 9.4 5.1C9.2 5.2 9.1 5.4 9.1 5.7H7.1C7.2 5 7.5 4.4 8 4C8.5 3.6 9.2 3.5 10.1 3.5C11 3.5 11.8 3.7 12.3 4.1C12.8 4.5 13.1 5.1 13.1 5.8C13.2 6.2 13.1 6.6 12.8 7Z" fill="black"/>
</svg>
