<svg width="18" height="16" viewBox="0 0 18 16" fill="none" xmlns="http://www.w3.org/2000/svg">
<path d="M15.6665 2.16667V13.8333H2.33317V2.16667H15.6665ZM15.6665 0.5H2.33317C1.40817 0.5 0.666504 1.24167 0.666504 2.16667V13.8333C0.666504 14.7583 1.40817 15.5 2.33317 15.5H15.6665C16.5915 15.5 17.3332 14.7583 17.3332 13.8333V2.16667C17.3332 1.24167 16.5915 0.5 15.6665 0.5ZM13.9998 10.5H3.99984V12.1667H13.9998V10.5ZM7.33317 3.83333H3.99984V8.83333H7.33317V3.83333ZM8.99984 5.5H13.9998V3.83333H8.99984V5.5ZM13.9998 7.16667H8.99984V8.83333H13.9998V7.16667Z" fill="#FFFCFD"/>
</svg>
