<svg width="109" height="107" viewBox="0 0 109 107" fill="none" xmlns="http://www.w3.org/2000/svg">
<path d="M49.7923 95.8229C51.0742 93.5947 51.5422 90.9903 51.1163 88.4552C50.6903 85.9201 49.397 83.6117 47.4573 81.9247C41.011 75.7903 33.1672 65.0417 37.9241 55.2088C38.187 54.6178 38.592 54.1011 39.1031 53.7046C39.6142 53.3082 40.2154 53.0444 40.8532 52.9367C41.491 52.8291 42.1455 52.8809 42.7584 53.0876C43.3713 53.2943 43.9235 53.6494 44.3658 54.1214C45.4126 55.3448 46.2356 57.4919 46.5232 61.224C47.2528 72.7223 65.4128 65.5769 58.8986 56.6846C52.3845 47.7922 36.8679 56.9602 42.6144 45.6726C48.3609 34.3851 64.4123 48.497 64.4123 48.497C64.4123 48.497 59.3354 25.9315 65.5569 23.5784C70.8 21.5621 75.7511 35.5291 73.9632 51.7148C73.9632 51.7148 86.5331 18.0831 89.5913 27.0083C92.6494 35.9334 81.2351 56.5331 81.2351 56.5331C81.2351 56.5331 98.283 41.943 99.8482 49.3881C101.413 56.8331 80.2406 68.929 76.666 73.3492C73.0914 77.7694 67.4856 98.0176 67.4856 98.0176" stroke="#DA0021" stroke-width="2" stroke-linecap="round" stroke-linejoin="round"/>
<path d="M29.2854 11.6178C29.61 10.9588 29.3388 10.1616 28.6799 9.83703C28.0209 9.51251 27.2237 9.78362 26.8991 10.4426C26.5746 11.1015 26.8457 11.8988 27.5047 12.2233C28.1636 12.5479 28.9609 12.2768 29.2854 11.6178Z" fill="#DA0021"/>
<path d="M62.8792 14.4283C63.2037 13.7694 62.9326 12.9721 62.2736 12.6476C61.6147 12.3231 60.8174 12.5942 60.4929 13.2531C60.1684 13.9121 60.4395 14.7094 61.0984 15.0339C61.7574 15.3584 62.5547 15.0873 62.8792 14.4283Z" fill="#1F1C1C"/>
<path d="M32.9102 39.7482L24.8232 30.4766" stroke="#1F1C1C" stroke-width="2" stroke-linecap="round" stroke-linejoin="round"/>
<path d="M47.2374 30.3459L46.3857 22.4458" stroke="#1F1C1C" stroke-width="2" stroke-linecap="round" stroke-linejoin="round"/>
</svg>
