<svg width="14" height="14" viewBox="0 0 14 14" fill="none" xmlns="http://www.w3.org/2000/svg">
<path d="M3.25 1.5C2.78587 1.5 2.34075 1.68437 2.01256 2.01256C1.68437 2.34075 1.5 2.78587 1.5 3.25V10.75C1.5 11.716 2.284 12.5 3.25 12.5H10.75C11.2141 12.5 11.6592 12.3156 11.9874 11.9874C12.3156 11.6592 12.5 11.2141 12.5 10.75V8.75C12.5 8.55109 12.579 8.36032 12.7197 8.21967C12.8603 8.07902 13.0511 8 13.25 8C13.4489 8 13.6397 8.07902 13.7803 8.21967C13.921 8.36032 14 8.55109 14 8.75V10.75C14 11.612 13.6576 12.4386 13.0481 13.0481C12.4386 13.6576 11.612 14 10.75 14H3.25C2.38805 14 1.5614 13.6576 0.951903 13.0481C0.34241 12.4386 0 11.612 0 10.75V3.25C0 2.38805 0.34241 1.5614 0.951903 0.951903C1.5614 0.34241 2.38805 0 3.25 0H5.25C5.44891 0 5.63968 0.0790175 5.78033 0.21967C5.92098 0.360322 6 0.551088 6 0.75C6 0.948912 5.92098 1.13968 5.78033 1.28033C5.63968 1.42098 5.44891 1.5 5.25 1.5H3.25ZM7.5 0.75C7.5 0.551088 7.57902 0.360322 7.71967 0.21967C7.86032 0.0790175 8.05109 0 8.25 0H13.25C13.4489 0 13.6397 0.0790175 13.7803 0.21967C13.921 0.360322 14 0.551088 14 0.75V5.75C14 5.94891 13.921 6.13968 13.7803 6.28033C13.6397 6.42098 13.4489 6.5 13.25 6.5C13.0511 6.5 12.8603 6.42098 12.7197 6.28033C12.579 6.13968 12.5 5.94891 12.5 5.75V2.56L8.78 6.28C8.71134 6.35369 8.62854 6.41279 8.53654 6.45378C8.44454 6.49477 8.34523 6.51682 8.24452 6.51859C8.14382 6.52037 8.04379 6.50184 7.9504 6.46412C7.85701 6.4264 7.77218 6.37026 7.70096 6.29904C7.62974 6.22782 7.5736 6.14299 7.53588 6.0496C7.49816 5.95621 7.47963 5.85618 7.48141 5.75548C7.48318 5.65478 7.50523 5.55546 7.54622 5.46346C7.58721 5.37146 7.64631 5.28866 7.72 5.22L11.44 1.5H8.25C8.05109 1.5 7.86032 1.42098 7.71967 1.28033C7.57902 1.13968 7.5 0.948912 7.5 0.75Z" fill="#DA0021"/>
</svg>
