<svg width="71" height="83" viewBox="0 0 71 83" fill="none" xmlns="http://www.w3.org/2000/svg">
<path d="M14.7948 1.69891C14.8628 1.02856 14.3744 0.430024 13.7041 0.362044C13.0337 0.294064 12.4352 0.782381 12.3672 1.45273C12.2992 2.12308 12.7876 2.72161 13.4579 2.78959C14.1283 2.85757 14.7268 2.36926 14.7948 1.69891Z" fill="#DA0021"/>
<path d="M69.869 22.3498C69.937 21.6794 69.4487 21.0809 68.7783 21.0129C68.108 20.9449 67.5094 21.4333 67.4414 22.1036C67.3735 22.774 67.8618 23.3725 68.5321 23.4405C69.2025 23.5085 69.801 23.0201 69.869 22.3498Z" fill="#1F1C1C"/>
<path d="M6.40879 14.3556L2.87305 11.0518" stroke="#DA0021" stroke-width="2" stroke-linecap="round" stroke-linejoin="round"/>
<path d="M64.0052 15.265L67.4083 9.34116" stroke="#1F1C1C" stroke-width="2" stroke-linecap="round" stroke-linejoin="round"/>
<path d="M27.198 39.1283C27.198 39.1283 14.781 2.9533 21.0843 3.96639C27.3876 4.97947 38.159 36.1447 38.159 36.1447C38.159 36.1447 49.1305 0.0174609 54.0137 6.88185C58.1196 12.6032 53.2336 28.9585 51.451 35.5796C51.0884 36.933 51.1269 38.3626 51.5618 39.6946C53.5824 45.9157 58.9739 64.92 52.6701 74.6214C45.1283 86.3077 37.9093 79.2656 31.529 80.9114C25.1486 82.5572 16.0187 67.9265 12.6612 52.9529C9.30374 37.9793 23.6963 49.1411 28.2841 54.8064C31.3946 58.6281 32.9515 62.5549 28.8164 62.325C26.8187 62.217 24.0902 60.7473 18.6684 58.6593" stroke="#DA0021" stroke-width="2" stroke-linecap="round" stroke-linejoin="round"/>
<path d="M19.1475 46.9586C19.1475 46.9586 15.1204 37.1378 22.6752 36.7366C25.3041 36.8128 27.3152 38.8719 31.1048 43.7738" stroke="#DA0021" stroke-width="2" stroke-linecap="round" stroke-linejoin="round"/>
<path d="M55.6777 61.653C54.5702 58.9332 52.8633 56.4984 50.6842 54.5299C48.5051 52.5613 45.9099 51.1098 43.0919 50.2835C36.5863 48.3141 33.7998 46.0825 32.6659 44.8191C32.5672 44.6984 32.4417 44.6025 32.2993 44.539C32.157 44.4755 32.0017 44.4461 31.846 44.4533C31.6903 44.4604 31.5384 44.5039 31.4025 44.5802C31.2665 44.6565 31.1503 44.7635 31.0631 44.8927C29.3085 47.4429 26.4495 53.9228 37.9075 58.9869C38.0405 59.045 38.1575 59.1344 38.2485 59.2474C38.3394 59.3605 38.4017 59.4938 38.43 59.6361C38.4583 59.7785 38.4518 59.9255 38.411 60.0648C38.3702 60.204 38.2963 60.3313 38.1957 60.4359C36.3385 62.3829 32.4904 67.0933 33.4698 72.3039" stroke="#DA0021" stroke-width="2" stroke-linecap="round" stroke-linejoin="round"/>
<path d="M33.4717 37.0494C37.1305 36.5715 40.8421 36.6791 44.4671 37.3682" stroke="#DA0021" stroke-width="2" stroke-linecap="round" stroke-linejoin="round"/>
</svg>
