<svg width="32" height="32" viewBox="0 0 32 32" fill="none" xmlns="http://www.w3.org/2000/svg">
<path d="M16.0013 2.66797C8.6373 2.66797 2.66797 8.6373 2.66797 16.0013C2.66797 23.3653 8.6373 29.3346 16.0013 29.3346C23.3653 29.3346 29.3346 23.3653 29.3346 16.0013C29.3346 8.6373 23.3653 2.66797 16.0013 2.66797Z" stroke="#DA0021" stroke-linecap="round" stroke-linejoin="round"/>
<path d="M5.69531 24.4626C5.69531 24.4626 8.66731 20.668 16.0006 20.668C23.334 20.668 26.3073 24.4626 26.3073 24.4626" stroke="#DA0021" stroke-linecap="round" stroke-linejoin="round"/>
<path d="M16 16C17.0609 16 18.0783 15.5786 18.8284 14.8284C19.5786 14.0783 20 13.0609 20 12C20 10.9391 19.5786 9.92172 18.8284 9.17157C18.0783 8.42143 17.0609 8 16 8C14.9391 8 13.9217 8.42143 13.1716 9.17157C12.4214 9.92172 12 10.9391 12 12C12 13.0609 12.4214 14.0783 13.1716 14.8284C13.9217 15.5786 14.9391 16 16 16V16Z" stroke="#DA0021" stroke-linecap="round" stroke-linejoin="round"/>
</svg>
