<svg width="33" height="36" viewBox="0 0 33 36" fill="none" xmlns="http://www.w3.org/2000/svg">
<path d="M20 14.25V11.75H17.3225C17.2061 11.3026 17.0272 10.8738 16.7913 10.4762L18.6875 8.58L16.92 6.8125L15.0237 8.70875C14.6262 8.47282 14.1974 8.29399 13.75 8.1775V5.5H11.25V8.1775C10.8026 8.29399 10.3738 8.47282 9.97625 8.70875L8.08 6.8125L6.3125 8.58L8.20875 10.4762C7.97276 10.8738 7.79392 11.3026 7.6775 11.75H5V14.25H7.6775C7.79392 14.6974 7.97276 15.1262 8.20875 15.5238L6.3125 17.42L8.08 19.1875L9.97625 17.2912C10.3738 17.5272 10.8026 17.706 11.25 17.8225V20.5H13.75V17.8225C14.1974 17.706 14.6262 17.5272 15.0237 17.2912L16.92 19.1875L18.6875 17.42L16.7913 15.5238C17.0272 15.1262 17.2061 14.6974 17.3225 14.25H20ZM12.5 15.5C12.0055 15.5 11.5222 15.3534 11.1111 15.0787C10.7 14.804 10.3795 14.4135 10.1903 13.9567C10.0011 13.4999 9.95157 12.9972 10.048 12.5123C10.1445 12.0273 10.3826 11.5819 10.7322 11.2322C11.0819 10.8826 11.5273 10.6445 12.0123 10.548C12.4972 10.4516 12.9999 10.5011 13.4567 10.6903C13.9135 10.8795 14.304 11.2 14.5787 11.6111C14.8534 12.0222 15 12.5055 15 13C14.9993 13.6628 14.7357 14.2983 14.267 14.767C13.7983 15.2357 13.1628 15.4993 12.5 15.5Z" fill="#DA0021"/>
<path d="M32.1338 22.116L28.3838 18.366C28.1493 18.1316 27.8315 18 27.5 18C27.1685 18 26.8507 18.1316 26.6162 18.366L15 29.9822V35.4997H20.5175L32.1338 23.8835C32.3681 23.6491 32.4997 23.3312 32.4997 22.9997C32.4997 22.6683 32.3681 22.3504 32.1338 22.116ZM19.4825 32.9997H17.5V31.0172L23.75 24.7672L25.7325 26.7497L19.4825 32.9997ZM27.5 24.9822L25.5175 22.9997L27.5 21.0172L29.4825 22.9997L27.5 24.9822Z" fill="#DA0021"/>
<path d="M10 35.5H2.5C1.83716 35.4993 1.20166 35.2357 0.732964 34.767C0.264267 34.2983 0.000661846 33.6628 0 33V3C0.000661846 2.33716 0.264267 1.70166 0.732964 1.23296C1.20166 0.764266 1.83716 0.500662 2.5 0.5H22.5C23.1628 0.500662 23.7983 0.764266 24.267 1.23296C24.7357 1.70166 24.9993 2.33716 25 3V15.5H22.5V3H2.5V33H10V35.5Z" fill="#DA0021"/>
</svg>
