<svg width="21" height="20" viewBox="0 0 21 20" fill="none" xmlns="http://www.w3.org/2000/svg">
<path fill-rule="evenodd" clip-rule="evenodd" d="M9.33398 3.33366C6.11232 3.33366 3.50065 5.94533 3.50065 9.16699C3.50065 12.3887 6.11232 15.0003 9.33398 15.0003C12.5556 15.0003 15.1673 12.3887 15.1673 9.16699C15.1673 5.94533 12.5556 3.33366 9.33398 3.33366ZM1.83398 9.16699C1.83398 5.02486 5.19185 1.66699 9.33398 1.66699C13.4761 1.66699 16.834 5.02486 16.834 9.16699C16.834 13.3091 13.4761 16.667 9.33398 16.667C5.19185 16.667 1.83398 13.3091 1.83398 9.16699Z" fill="#575152"/>
<path fill-rule="evenodd" clip-rule="evenodd" d="M13.4531 13.2861C13.7785 12.9606 14.3061 12.9606 14.6316 13.2861L18.2566 16.9111C18.582 17.2365 18.582 17.7641 18.2566 18.0896C17.9311 18.415 17.4035 18.415 17.0781 18.0896L13.4531 14.4646C13.1276 14.1391 13.1276 13.6115 13.4531 13.2861Z" fill="#575152"/>
</svg>
