<svg width="21" height="21" viewBox="0 0 21 21" fill="none" xmlns="http://www.w3.org/2000/svg">
<path d="M4.50052 13.4997C5.37518 13.4971 6.21675 13.1651 6.85752 12.5697L13.1175 16.1467C12.9078 16.9663 13.0002 17.8341 13.378 18.5911C13.7557 19.3481 14.3935 19.9437 15.1745 20.2689C15.9555 20.5941 16.8275 20.6272 17.6309 20.362C18.4343 20.0969 19.1153 19.5512 19.5493 18.825C19.9832 18.0987 20.1411 17.2405 19.994 16.4074C19.8469 15.5742 19.4047 14.822 18.7483 14.2882C18.0918 13.7545 17.2652 13.4751 16.4195 13.5011C15.5739 13.527 14.7659 13.8567 14.1435 14.4297L7.88352 10.8527C7.94952 10.6027 7.98552 10.3437 7.99152 10.0847L14.1415 6.56972C14.7337 7.10849 15.4932 7.42722 16.2925 7.47244C17.0918 7.51765 17.8823 7.28659 18.5315 6.81804C19.1806 6.34948 19.6489 5.67192 19.8577 4.89904C20.0666 4.12616 20.0032 3.30498 19.6784 2.57325C19.3535 1.84153 18.7869 1.24379 18.0735 0.880316C17.3602 0.516839 16.5436 0.409738 15.7607 0.576982C14.9777 0.744225 14.2761 1.17564 13.7736 1.79884C13.271 2.42205 12.9981 3.19913 13.0005 3.99972C13.0045 4.28772 13.0435 4.57472 13.1175 4.85272L7.43352 8.09972C7.1039 7.58978 6.64729 7.17437 6.10854 6.89429C5.5698 6.61422 4.96746 6.47912 4.3607 6.50227C3.75395 6.52542 3.16365 6.70602 2.64781 7.02633C2.13197 7.34664 1.70834 7.79564 1.41853 8.32921C1.12872 8.86279 0.982709 9.46257 0.994839 10.0696C1.00697 10.6767 1.17683 11.2702 1.48772 11.7918C1.79861 12.3133 2.23984 12.7451 2.76807 13.0445C3.29629 13.344 3.89333 13.5008 4.50052 13.4997Z" fill="#FFFCFD"/>
</svg>
