<svg width="16" height="16" viewBox="0 0 16 16" fill="none" xmlns="http://www.w3.org/2000/svg">
<path fill-rule="evenodd" clip-rule="evenodd" d="M7.9987 1.83203C4.59294 1.83203 1.83203 4.59294 1.83203 7.9987C1.83203 11.4045 4.59294 14.1654 7.9987 14.1654C11.4045 14.1654 14.1654 11.4045 14.1654 7.9987C14.1654 4.59294 11.4045 1.83203 7.9987 1.83203ZM0.832031 7.9987C0.832031 4.04066 4.04066 0.832031 7.9987 0.832031C11.9567 0.832031 15.1654 4.04066 15.1654 7.9987C15.1654 11.9567 11.9567 15.1654 7.9987 15.1654C4.04066 15.1654 0.832031 11.9567 0.832031 7.9987Z" fill="#332F30"/>
<path fill-rule="evenodd" clip-rule="evenodd" d="M8.67211 2.19948C8.41197 1.92442 8.1838 1.83203 7.9974 1.83203C7.81099 1.83203 7.58282 1.92442 7.32269 2.19948C7.06156 2.47561 6.80336 2.902 6.57602 3.47035C6.12244 4.60428 5.83073 6.20507 5.83073 7.9987C5.83073 9.79232 6.12244 11.3931 6.57602 12.527C6.80336 13.0954 7.06156 13.5218 7.32269 13.7979C7.58282 14.073 7.81099 14.1654 7.9974 14.1654C8.1838 14.1654 8.41197 14.073 8.67211 13.7979C8.93324 13.5218 9.19143 13.0954 9.41878 12.527C9.87235 11.3931 10.1641 9.79232 10.1641 7.9987C10.1641 6.20507 9.87235 4.60428 9.41878 3.47035C9.19143 2.902 8.93324 2.47561 8.67211 2.19948ZM10.3473 3.09896C10.8588 4.37789 11.1641 6.11042 11.1641 7.9987C11.1641 9.88697 10.8588 11.6195 10.3473 12.8984C10.092 13.5365 9.7756 14.0864 9.39866 14.485C9.02072 14.8847 8.54737 15.1654 7.9974 15.1654C7.44742 15.1654 6.97407 14.8847 6.59613 14.485C6.21919 14.0864 5.90277 13.5365 5.64754 12.8984C5.13597 11.6195 4.83073 9.88697 4.83073 7.9987C4.83073 6.11042 5.13597 4.37789 5.64754 3.09896C5.90277 2.46088 6.21919 1.91096 6.59613 1.51238C6.97407 1.11274 7.44742 0.832031 7.9974 0.832031C8.54737 0.832031 9.02072 1.11274 9.39866 1.51238C9.7756 1.91096 10.092 2.46088 10.3473 3.09896Z" fill="#332F30"/>
<path fill-rule="evenodd" clip-rule="evenodd" d="M0.832031 8C0.832031 7.72386 1.05589 7.5 1.33203 7.5H14.6654C14.9415 7.5 15.1654 7.72386 15.1654 8C15.1654 8.27614 14.9415 8.5 14.6654 8.5H1.33203C1.05589 8.5 0.832031 8.27614 0.832031 8Z" fill="#332F30"/>
</svg>
