<svg width="155" height="40" viewBox="0 0 155 40" fill="none" xmlns="http://www.w3.org/2000/svg">
<path d="M90.892 29.6493C89.5421 28.9707 88.0815 28.5396 86.5794 28.3766C85.0516 28.1742 84.2883 27.7385 84.2895 27.0694C84.2895 26.5791 84.9528 26.3367 86.2794 26.3421C87.0984 26.3361 87.909 26.5082 88.6548 26.8467C89.1217 27.0999 89.6289 27.2705 90.1539 27.3512C90.6714 27.3512 91.1778 26.9621 91.6729 26.184C92.0961 25.6071 92.3535 24.9256 92.4175 24.2131C92.4175 23.678 92.025 23.2316 91.2402 22.874C89.7003 22.147 88.023 21.7568 86.3203 21.7295C81.4441 21.7222 79.0032 23.4798 78.9978 27.0021C78.9688 28.0574 79.1867 29.1049 79.6341 30.0611C79.983 30.8314 80.5427 31.4873 81.2486 31.9529C82.5298 32.7607 83.9629 33.2974 85.4594 33.5301C86.9649 33.7332 87.7173 34.0462 87.7166 34.4692C87.7166 35.0037 87.0309 35.2701 85.6594 35.2683C84.749 35.2237 83.8662 34.9417 83.0986 34.4501C82.4298 33.9989 81.6608 33.718 80.8586 33.632C80.6268 33.6128 80.394 33.6551 80.1836 33.7545C79.9733 33.8539 79.7928 34.007 79.6605 34.1983C79.0005 34.9439 78.5565 35.8554 78.376 36.8346C78.3572 37.0845 78.4065 37.3347 78.5185 37.5588C78.6306 37.7828 78.8012 37.9724 79.0123 38.1073C80.8734 39.318 83.042 39.9709 85.2622 39.9891C87.1201 40.0541 88.969 39.7031 90.6739 38.9618C91.4614 38.562 92.1046 37.9264 92.5138 37.1437C92.9771 36.2287 93.2046 35.2126 93.1756 34.1874C93.2137 33.1831 92.9887 32.1862 92.5229 31.2956C92.1643 30.5902 91.5941 30.0145 90.892 29.6493Z" fill="#1E1E1E"/>
<path d="M111.39 24.284C109.655 22.6171 107.342 21.6862 104.936 21.6862C102.53 21.6862 100.217 22.6171 98.4813 24.284C97.5582 25.1155 96.8261 26.1372 96.3355 27.2787C95.8449 28.4202 95.6075 29.6545 95.6396 30.8965C95.6133 32.6041 96.1104 34.2788 97.0641 35.6955C97.9453 37.0474 99.1556 38.1532 100.581 38.9091C101.909 39.6182 103.389 39.9927 104.894 40C106.386 39.9998 107.858 39.6531 109.193 38.9873C110.63 38.2627 111.847 37.1686 112.721 35.8173C113.867 34.0377 114.361 31.916 114.118 29.8133C113.876 27.7106 112.912 25.7569 111.391 24.2849L111.39 24.284ZM107.095 33.2838C106.464 33.7984 105.682 34.0907 104.868 34.1156C104.068 34.0946 103.297 33.8066 102.679 33.2974C102.316 33.0081 102.028 32.6348 101.841 32.2096C101.654 31.7844 101.573 31.32 101.605 30.8565C101.575 30.3938 101.654 29.9305 101.837 29.5041C102.019 29.0777 102.299 28.7002 102.654 28.4021C103.287 27.8698 104.086 27.5756 104.913 27.5703C105.735 27.5762 106.531 27.8604 107.17 28.3766C107.505 28.6943 107.77 29.0779 107.949 29.5033C108.127 29.9286 108.216 30.3863 108.209 30.8476C108.202 31.3089 108.099 31.7638 107.907 32.1834C107.716 32.603 107.439 32.9783 107.095 33.2856V33.2838Z" fill="#1E1E1E"/>
<path d="M134.545 23.0013C134.232 22.3995 133.368 22.0965 131.952 22.0922C130.514 22.0922 129.648 22.3804 129.355 22.9568C129.196 23.2306 129.087 23.5303 129.033 23.8422C128.992 24.225 128.975 24.61 128.981 24.9949L128.971 30.9102C128.986 31.2993 128.921 31.6874 128.778 32.0497C128.635 32.412 128.419 32.7407 128.142 33.0147C127.853 33.2849 127.514 33.4948 127.143 33.632C126.772 33.7692 126.378 33.831 125.983 33.8138C125.596 33.8324 125.209 33.7737 124.844 33.641C124.48 33.5083 124.146 33.3044 123.861 33.0411C123.589 32.7583 123.378 32.4222 123.242 32.0538C123.106 31.6855 123.048 31.293 123.072 30.9011L123.082 25.0522C123.11 24.4769 123.043 23.9009 122.882 23.3477C122.614 22.4992 121.693 22.075 120.12 22.075C118.682 22.075 117.805 22.3743 117.489 22.9731C117.351 23.2467 117.255 23.5393 117.202 23.8413C117.161 24.2298 117.143 24.6206 117.149 25.0113L117.14 30.8602C117.076 33.1451 117.872 35.3709 119.371 37.0964C120.061 37.918 120.925 38.5748 121.901 39.0189C122.877 39.463 123.941 39.6829 125.013 39.6627C125.898 39.6692 126.765 39.4164 127.508 38.9355C127.828 38.7127 128.132 38.4675 128.417 38.2019C128.648 38.0072 128.852 37.7828 129.025 37.5346C129.01 38.0136 129.126 38.4875 129.36 38.9055C129.674 39.4412 130.516 39.71 131.886 39.7118C133.28 39.7118 134.146 39.4233 134.484 38.8464C134.645 38.5859 134.754 38.2967 134.805 37.9946C134.845 37.623 134.862 37.2492 134.857 36.8755L134.875 25.0404C134.882 24.6555 134.866 24.2706 134.827 23.8877C134.778 23.5797 134.683 23.2809 134.545 23.0013Z" fill="#1E1E1E"/>
<path d="M154.324 35.7019C154.024 35.2959 153.667 34.9349 153.264 34.6301L148.787 30.9466L152.128 28.1448C152.961 27.4557 153.378 26.8548 153.379 26.3421C153.243 25.5385 152.862 24.7965 152.288 24.2177C151.561 23.314 150.916 22.8619 150.353 22.8613C149.6 22.9396 148.891 23.2543 148.328 23.7604L147.924 24.0267C147.519 24.3607 146.906 24.9279 146.084 25.7285C145.261 26.5291 144.646 27.0961 144.239 27.4294L144.256 16.8342C144.261 16.522 144.251 16.2098 144.225 15.8988C144.238 15.6241 144.191 15.35 144.086 15.0956C143.982 14.8413 143.823 14.613 143.62 14.4269C142.943 13.9835 142.136 13.782 141.329 13.8551C139.89 13.8551 139.013 14.1545 138.698 14.7533C138.558 15.0322 138.461 15.3308 138.41 15.6387C138.37 16.0216 138.353 16.4065 138.358 16.7915L138.326 36.811C138.319 37.1961 138.335 37.5813 138.374 37.9646C138.424 38.2728 138.52 38.5717 138.659 38.8509C138.973 39.4527 139.838 39.7558 141.253 39.76C142.691 39.76 143.557 39.4718 143.85 38.8955C144.009 38.6216 144.118 38.3219 144.172 38.0101C144.212 37.6272 144.229 37.2423 144.224 36.8574L144.228 34.2838C144.789 34.7298 145.608 35.4831 146.683 36.5437C147.758 37.6043 148.554 38.3464 149.072 38.77L149.409 39.0046C149.985 39.5207 150.699 39.8583 151.464 39.9764C152.047 39.9764 152.722 39.5097 153.488 38.5764C154.047 37.974 154.412 37.2178 154.537 36.4055C154.531 36.1561 154.458 35.913 154.324 35.7019Z" fill="#1E1E1E"/>
<path d="M15.9973 24.9168C15.0344 24.4697 14.0354 24.1048 13.011 23.8259C12.0288 23.5486 11.0318 23.3268 10.0247 23.1613C9.21285 23.0537 8.43369 22.7725 7.74023 22.3368C7.46138 22.1756 7.22995 21.9438 7.06923 21.6646C6.90852 21.3855 6.82421 21.0689 6.82479 20.7468C6.81422 20.4456 6.88032 20.1466 7.0169 19.8779C7.15349 19.6092 7.35608 19.3795 7.60569 19.2105C8.17902 18.8254 8.86007 18.6328 9.55019 18.6605C10.2229 18.6347 10.8896 18.7965 11.4756 19.1278C11.6714 19.2702 11.8576 19.4253 12.0329 19.5923C12.1622 19.7209 12.3004 19.8403 12.4465 19.9496C12.9921 20.3559 13.6391 20.6041 14.3164 20.6669C15.1813 20.6669 16.0225 20.0732 16.84 18.886C17.306 18.3256 17.6061 17.6461 17.7064 16.9242C17.575 16.2192 17.1763 15.5923 16.5937 15.1743L15.6946 14.4943C14.9476 13.9737 14.1132 13.5916 13.231 13.3661C11.9531 12.9822 10.6245 12.7934 9.29019 12.8061C8.1169 12.7413 6.94262 12.9141 5.83774 13.3142C4.73286 13.7142 3.72015 14.3333 2.86034 15.1343C2.11152 15.8355 1.51519 16.6835 1.10854 17.6254C0.701887 18.5672 0.493632 19.5828 0.496758 20.6087C0.454479 21.9686 0.767827 23.316 1.40583 24.5177C1.92685 25.5098 2.7183 26.3341 3.6885 26.8949C5.53767 27.8925 7.52663 28.6056 9.58837 29.0103C10.3923 29.1396 11.1662 29.4131 11.8729 29.8176C12.1361 29.942 12.3606 30.1357 12.522 30.3781C12.6834 30.6204 12.7758 30.9021 12.7892 31.193C12.7856 33.002 11.668 33.9044 9.43655 33.9002C8.82144 33.8724 8.22501 33.6803 7.70932 33.3439C7.16721 33.0414 6.68081 32.6485 6.27117 32.182C5.07301 30.99 4.13819 30.3936 3.46669 30.393C2.74238 30.4134 2.05576 30.7204 1.55764 31.2466C0.523121 32.2436 0.00585938 33.0457 0.00585938 33.6529C0.0739276 34.4235 0.402597 35.1479 0.937658 35.7065L1.26129 36.1001C2.59889 37.6686 4.37847 38.7971 6.36753 39.3383C7.41221 39.6183 8.48954 39.7581 9.5711 39.7537C11.788 39.7548 13.9558 39.1005 15.8019 37.8728C16.8451 37.1949 17.6916 36.2543 18.2564 35.1456C18.903 33.8825 19.2268 32.479 19.1991 31.0602C19.2473 29.6998 18.9336 28.3509 18.29 27.1513C17.7764 26.1864 16.9751 25.4054 15.9973 24.9168Z" fill="#1E1E1E"/>
<path d="M70.9445 19.975C71.5756 20.0024 72.2072 19.9309 72.8163 19.7632C73.7047 19.4796 74.1502 18.5048 74.1526 16.8388C74.1526 15.3164 73.8302 14.3879 73.1854 14.0534C72.8899 13.8849 72.5671 13.7695 72.2317 13.7125C71.8192 13.67 71.4046 13.6514 70.9899 13.657L56.8084 13.6343C55.8929 13.5304 54.9708 13.7637 54.2149 14.2906C53.6736 14.9972 53.4272 15.8861 53.5276 16.7706L53.4949 36.6156C53.465 37.2292 53.5368 37.8436 53.7076 38.4337C53.9943 39.3392 54.9776 39.7937 56.6575 39.7973L70.9127 39.8201C71.5438 39.8472 72.1752 39.7761 72.7844 39.6092C73.6723 39.3249 74.1181 38.3498 74.1217 36.6838C74.1217 35.1608 73.7993 34.2323 73.1544 33.8984C72.8589 33.73 72.5362 33.6146 72.2008 33.5575C71.7883 33.515 71.3737 33.4964 70.959 33.502L59.8684 33.4848L59.8747 29.8794L66.93 29.8912C67.5615 29.9186 68.1933 29.8471 68.8027 29.6794C69.7118 29.3957 70.1694 28.4209 70.1754 26.7549C70.1754 25.2319 69.8527 24.3034 69.2073 23.9695C68.912 23.8011 68.5896 23.6857 68.2545 23.6286C67.842 23.5861 67.4274 23.5676 67.0128 23.5731L59.8847 23.5622L59.8911 19.9569L70.9445 19.975Z" fill="#1E1E1E"/>
<path d="M23.502 36.7682C23.502 39.5118 24.9047 39.8891 26.6419 39.8918C28.3791 39.8918 29.7873 39.4091 29.7918 36.7791L29.8091 21.9213L23.5274 17.9905L23.502 36.7682Z" fill="#1E1E1E"/>
<path d="M28.4276 8.53435C30.8043 8.53435 32.7311 6.62387 32.7311 4.26718C32.7311 1.91048 30.8043 0 28.4276 0C26.0508 0 24.124 1.91048 24.124 4.26718C24.124 6.62387 26.0508 8.53435 28.4276 8.53435Z" fill="#D90021"/>
<path d="M42.6582 21.9213L42.6755 36.7791C42.6755 39.4091 44.0882 39.8954 45.8254 39.8918C47.5626 39.8918 48.9699 39.5118 48.9653 36.7682L48.9399 17.9905L42.6582 21.9213Z" fill="#1E1E1E"/>
<path d="M44.0399 8.53435C46.4166 8.53435 48.3434 6.62387 48.3434 4.26718C48.3434 1.91048 46.4166 0 44.0399 0C41.6631 0 39.7363 1.91048 39.7363 4.26718C39.7363 6.62387 41.6631 8.53435 44.0399 8.53435Z" fill="#D90021"/>
<path d="M50.026 11.2843C49.1014 9.82984 47.7615 8.76533 46.066 10.068L36.2199 16.2033L26.3738 10.0662C24.6783 8.7635 23.3384 9.82349 22.4139 11.2825C21.4893 12.7371 21.4193 14.1125 23.0266 15.347L34.3754 22.4187C34.5999 22.5971 34.8469 22.7453 35.1099 22.8595C35.4575 23.0218 35.8364 23.1059 36.2199 23.1059C36.6035 23.1059 36.9823 23.0218 37.3299 22.8595C37.5929 22.7453 37.8399 22.5971 38.0644 22.4187L49.4132 15.347C51.0205 14.1125 50.9496 12.7407 50.026 11.2825V11.2843Z" fill="#1E1E1E"/>
</svg>
