<svg width="18" height="18" viewBox="0 0 18 18" fill="none" xmlns="http://www.w3.org/2000/svg">
<path d="M15.6665 5.66699H2.33317V4.00033H15.6665V5.66699ZM13.9998 0.666992H3.99984V2.33366H13.9998V0.666992ZM17.3332 9.00033V15.667C17.3332 16.109 17.1576 16.5329 16.845 16.8455C16.5325 17.1581 16.1085 17.3337 15.6665 17.3337H2.33317C1.89114 17.3337 1.46722 17.1581 1.15466 16.8455C0.842099 16.5329 0.666504 16.109 0.666504 15.667V9.00033C0.666504 8.5583 0.842099 8.13438 1.15466 7.82181C1.46722 7.50925 1.89114 7.33366 2.33317 7.33366H15.6665C16.1085 7.33366 16.5325 7.50925 16.845 7.82181C17.1576 8.13438 17.3332 8.5583 17.3332 9.00033ZM12.3332 12.3337L7.33317 9.60866V15.0503L12.3332 12.3337Z" fill="#FFFCFD"/>
</svg>
