<svg width="155" height="22" viewBox="0 0 155 22" fill="none" xmlns="http://www.w3.org/2000/svg">
<path d="M11.981 0.33041L14.733 7.63621L22.507 8.00556C22.7211 8.01558 22.9067 8.15741 22.9734 8.36186C23.04 8.56632 22.9738 8.79084 22.807 8.92594L16.732 13.8088L18.784 21.3435C18.8411 21.5511 18.764 21.7725 18.5904 21.8992C18.4168 22.0259 18.1831 22.0312 18.004 21.9126L11.499 17.6258L4.99298 21.9146C4.81383 22.0332 4.58018 22.0279 4.40658 21.9012C4.23298 21.7746 4.15584 21.5531 4.21298 21.3455L6.26698 13.8088L0.191982 8.92594C0.0251846 8.79084 -0.0410392 8.56632 0.0256047 8.36186C0.0922485 8.15741 0.277882 8.01558 0.491982 8.00556L8.26698 7.63621L11.019 0.33041C11.0961 0.131228 11.2871 0 11.5 0C11.7129 0 11.9039 0.131228 11.981 0.33041Z" fill="url(#paint0_angular_1384_42231)"/>
<path d="M44.979 0.33041L47.731 7.63621L55.505 8.00556C55.7191 8.01558 55.9048 8.15741 55.9714 8.36186C56.0381 8.56632 55.9718 8.79084 55.805 8.92594L49.73 13.8088L51.782 21.3435C51.8392 21.5511 51.762 21.7725 51.5884 21.8992C51.4148 22.0259 51.1812 22.0312 51.002 21.9126L44.497 17.6258L37.991 21.9146C37.8119 22.0332 37.5782 22.0279 37.4046 21.9012C37.231 21.7746 37.1539 21.5531 37.211 21.3455L39.265 13.8088L33.19 8.92594C33.0232 8.79084 32.957 8.56632 33.0237 8.36186C33.0903 8.15741 33.2759 8.01558 33.49 8.00556L41.265 7.63621L44.017 0.33041C44.0941 0.131228 44.2851 0 44.498 0C44.7109 0 44.902 0.131228 44.979 0.33041Z" fill="url(#paint1_angular_1384_42231)"/>
<path d="M77.979 0.33041L80.731 7.63621L88.505 8.00556C88.7191 8.01558 88.9048 8.15741 88.9714 8.36186C89.0381 8.56632 88.9718 8.79084 88.805 8.92594L82.73 13.8088L84.782 21.3435C84.8392 21.5511 84.762 21.7725 84.5884 21.8992C84.4148 22.0259 84.1812 22.0312 84.002 21.9126L77.497 17.6258L70.991 21.9146C70.8119 22.0332 70.5782 22.0279 70.4046 21.9012C70.231 21.7746 70.1539 21.5531 70.211 21.3455L72.265 13.8088L66.19 8.92594C66.0232 8.79084 65.957 8.56632 66.0237 8.36186C66.0903 8.15741 66.2759 8.01558 66.49 8.00556L74.265 7.63621L77.017 0.33041C77.0941 0.131228 77.2851 0 77.498 0C77.7109 0 77.902 0.131228 77.979 0.33041Z" fill="url(#paint2_angular_1384_42231)"/>
<path d="M110.977 0.33041L113.729 7.63621L121.503 8.00556C121.717 8.01558 121.903 8.15741 121.969 8.36186C122.036 8.56632 121.97 8.79084 121.803 8.92594L115.728 13.8088L117.78 21.3435C117.837 21.5511 117.76 21.7725 117.586 21.8992C117.413 22.0259 117.179 22.0312 117 21.9126L110.495 17.6258L103.989 21.9146C103.81 22.0332 103.576 22.0279 103.403 21.9012C103.229 21.7746 103.152 21.5531 103.209 21.3455L105.263 13.8088L99.1881 8.92594C99.0213 8.79084 98.9551 8.56632 99.0217 8.36186C99.0883 8.15741 99.274 8.01558 99.4881 8.00556L107.263 7.63621L110.015 0.33041C110.092 0.131228 110.283 0 110.496 0C110.709 0 110.9 0.131228 110.977 0.33041Z" fill="url(#paint3_angular_1384_42231)"/>
<path d="M143.977 0.33041L146.729 7.63621L154.503 8.00556C154.717 8.01558 154.903 8.15741 154.969 8.36186C155.036 8.56632 154.97 8.79084 154.803 8.92594L148.728 13.8088L150.78 21.3435C150.837 21.5511 150.76 21.7725 150.586 21.8992C150.413 22.0259 150.179 22.0312 150 21.9126L143.495 17.6258L136.989 21.9146C136.81 22.0332 136.576 22.0279 136.403 21.9012C136.229 21.7746 136.152 21.5531 136.209 21.3455L138.263 13.8088L132.188 8.92594C132.021 8.79084 131.955 8.56632 132.022 8.36186C132.088 8.15741 132.274 8.01558 132.488 8.00556L140.263 7.63621L143.015 0.33041C143.092 0.131228 143.283 0 143.496 0C143.709 0 143.9 0.131228 143.977 0.33041Z" fill="url(#paint4_angular_1384_42231)"/>
<defs>
<radialGradient id="paint0_angular_1384_42231" cx="0" cy="0" r="1" gradientUnits="userSpaceOnUse" gradientTransform="translate(11.4995 11) rotate(90) scale(11 11.4995)">
<stop stop-color="#BE7F20"/>
<stop offset="0.770833" stop-color="#FFDA3F"/>
</radialGradient>
<radialGradient id="paint1_angular_1384_42231" cx="0" cy="0" r="1" gradientUnits="userSpaceOnUse" gradientTransform="translate(44.4975 11) rotate(90) scale(11 11.4995)">
<stop stop-color="#BE7F20"/>
<stop offset="0.770833" stop-color="#FFDA3F"/>
</radialGradient>
<radialGradient id="paint2_angular_1384_42231" cx="0" cy="0" r="1" gradientUnits="userSpaceOnUse" gradientTransform="translate(77.4975 11) rotate(90) scale(11 11.4995)">
<stop stop-color="#BE7F20"/>
<stop offset="0.770833" stop-color="#FFDA3F"/>
</radialGradient>
<radialGradient id="paint3_angular_1384_42231" cx="0" cy="0" r="1" gradientUnits="userSpaceOnUse" gradientTransform="translate(110.496 11) rotate(90) scale(11 11.4995)">
<stop stop-color="#BE7F20"/>
<stop offset="0.770833" stop-color="#FFDA3F"/>
</radialGradient>
<radialGradient id="paint4_angular_1384_42231" cx="0" cy="0" r="1" gradientUnits="userSpaceOnUse" gradientTransform="translate(143.496 11) rotate(90) scale(11 11.4995)">
<stop stop-color="#BE7F20"/>
<stop offset="0.770833" stop-color="#FFDA3F"/>
</radialGradient>
</defs>
</svg>
