<svg width="70" height="73" viewBox="0 0 70 73" fill="none" xmlns="http://www.w3.org/2000/svg">
<path d="M62.8823 19.1178C61.7226 16.9611 59.3575 15.8684 57.0677 16.2225L50.6998 4.37965C48.7382 0.73148 44.1905 -0.635751 40.5423 1.32588C36.9429 10.7123 32.9865 22.4196 19.572 29.6326L3.05795 38.5122C0.321773 39.9835 -0.703627 43.3942 0.76762 46.1303L6.09541 56.0388C7.56666 58.775 10.9774 59.8004 13.7135 58.3291L18.1788 55.9281C19.8324 63.641 24.8935 67.8024 29.4133 72.166C29.8842 72.6206 30.4993 72.8983 31.1522 72.9447C34.027 73.1492 39.0762 70.7672 41.1166 68.2722C42.4047 66.697 41.6548 64.334 39.6988 63.774C36.7881 62.9406 34.5399 61.6369 34.2782 58.5912C34.2578 58.3522 34.178 58.1221 34.046 57.9218C33.914 57.7215 33.7341 57.5574 33.5225 57.4444C30.4696 55.8023 29.7061 51.2329 32.4282 48.3528C44.9503 42.5825 56.1302 45.5115 65.4053 47.5653C69.0535 45.6037 70.4207 41.056 68.4591 37.4078L62.0912 25.565C63.6492 23.8501 64.0419 21.2746 62.8823 19.1178ZM60.7355 38.8805C52.6029 37.2687 42.6724 36.2269 31.7894 40.4765L27.9186 33.2777C37.465 26.5423 42.072 17.6838 45.2121 10.0106L60.7355 38.8805Z" fill="#DA0021" fill-opacity="0.8"/>
</svg>
