<svg width="18" height="18" viewBox="0 0 18 18" fill="none" xmlns="http://www.w3.org/2000/svg">
<path d="M13.9998 10.667H7.74984L9.4165 9.00033H13.9998V10.667ZM3.99984 10.667V8.58366L9.73317 2.86699C9.8915 2.70866 10.1582 2.70866 10.3248 2.86699L11.7915 4.34199C11.9582 4.50866 11.9582 4.76699 11.7915 4.93366L6.05817 10.667H3.99984ZM15.6665 0.666992H2.33317C1.89114 0.666992 1.46722 0.842587 1.15466 1.15515C0.842099 1.46771 0.666504 1.89163 0.666504 2.33366V17.3337L3.99984 14.0003H15.6665C16.1085 14.0003 16.5325 13.8247 16.845 13.5122C17.1576 13.1996 17.3332 12.7757 17.3332 12.3337V2.33366C17.3332 1.89163 17.1576 1.46771 16.845 1.15515C16.5325 0.842587 16.1085 0.666992 15.6665 0.666992Z" fill="#FFFCFD"/>
</svg>
