<svg width="31" height="30" viewBox="0 0 31 30" fill="none" xmlns="http://www.w3.org/2000/svg">
<path d="M28.7551 11.7857H19.1122V2.14286C19.1122 0.959598 18.1526 0 16.9694 0H14.8265C13.6433 0 12.6837 0.959598 12.6837 2.14286V11.7857H3.04081C1.85755 11.7857 0.897949 12.7453 0.897949 13.9286V16.0714C0.897949 17.2547 1.85755 18.2143 3.04081 18.2143H12.6837V27.8571C12.6837 29.0404 13.6433 30 14.8265 30H16.9694C18.1526 30 19.1122 29.0404 19.1122 27.8571V18.2143H28.7551C29.9384 18.2143 30.8979 17.2547 30.8979 16.0714V13.9286C30.8979 12.7453 29.9384 11.7857 28.7551 11.7857Z" fill="#CCCCCC"/>
</svg>
