<svg width="362" height="272" viewBox="0 0 362 272" fill="none" xmlns="http://www.w3.org/2000/svg">
<path d="M228.163 83.7167H159.383L167.247 8.76562H236.027L228.163 83.7167Z" fill="#83E2FF"/>
<path d="M223.14 39.5936H175.477L175.73 37.1758H223.393L223.14 39.5936Z" fill="white"/>
<path d="M201.501 47.449H174.652L174.906 45.0312H201.754L201.501 47.449Z" fill="white"/>
<path d="M221.491 55.3084H173.828L174.082 52.8906H221.745L221.491 55.3084Z" fill="#7DCFE2"/>
<path d="M220.667 63.1639H173.004L173.257 60.7461H220.921L220.667 63.1639Z" fill="#7DCFE2"/>
<path d="M19.1265 65.1313C19.4885 64.9621 19.8716 64.8351 20.2517 64.7112C19.2864 65.0255 18.318 65.3368 17.3527 65.6511C19.2713 65.0376 21.2804 64.7354 23.2895 64.6357C22.3091 64.681 21.3286 64.7294 20.3482 64.7747C22.8973 64.6659 25.4404 64.9107 27.9382 65.4456C26.9909 65.2431 26.0437 65.0376 25.0995 64.8351C28.0679 65.494 30.9186 66.5518 33.6397 67.9087C32.7739 67.4735 31.9111 67.0353 31.0453 66.6001C33.2777 67.7335 35.4014 69.0542 37.4346 70.5169C42.4543 74.1345 49.818 72.5086 53.2118 67.4796C56.7473 62.2391 55.2088 55.297 50.18 51.6734C45.8873 48.5816 41.0637 45.9795 36.0439 44.2992C32.1253 42.9905 27.8838 42.1141 23.7359 42.0627C18.9153 42.0053 13.7689 42.5342 9.32834 44.6014C3.71433 47.2156 1.33417 54.2271 3.98582 59.7759C6.67367 65.4184 13.5125 67.7425 19.1265 65.1313Z" fill="#FFAEAE"/>
<path d="M14.467 55.3768C15.375 54.9537 15.9783 54.8147 17.01 54.5759C19.369 54.0289 21.8035 53.8778 24.2168 54.0198C33.3996 54.5668 41.7256 59.5082 48.4014 65.5738C58.0638 74.3533 65.153 85.7682 71.0144 97.3313C71.3462 97.9841 72.3719 97.4945 72.04 96.8417C64.966 82.885 55.9341 68.6141 42.7633 59.6683C36.3106 55.2861 28.6453 52.418 20.7658 52.8956C18.5183 53.0316 16.0477 53.3882 13.9813 54.3553C13.3146 54.6605 13.8063 55.6881 14.467 55.3768Z" fill="#F59B92"/>
<path d="M29.6198 42.2838C30.018 42.311 30.4163 42.3865 30.8054 42.4621C29.8099 42.2687 28.8114 42.0752 27.8159 41.8818C29.7918 42.2747 31.6983 42.9819 33.5053 43.8674C32.6244 43.4322 31.7436 43 30.8627 42.5648C33.1494 43.7042 35.258 45.1488 37.1826 46.8262C36.4526 46.1885 35.7226 45.5538 34.9895 44.9161C37.2731 46.9289 39.2551 49.2379 40.9836 51.7433C40.4376 50.9424 39.8916 50.1416 39.3456 49.3407C40.7544 51.4139 41.9761 53.599 43.0501 55.8626C45.7017 61.4598 52.9296 63.5995 58.3265 60.8402C63.9495 57.9661 65.9496 51.1389 63.2949 45.5357C61.0294 40.7485 58.061 36.1366 54.4742 32.2349C51.6747 29.1915 48.3835 26.3687 44.7786 24.3197C40.5854 21.9351 35.8251 19.9072 30.9381 19.5687C24.76 19.1396 19.2968 24.1263 18.9408 30.2674C18.5788 36.5083 23.4447 41.8546 29.6198 42.2838Z" fill="#FFB9B6"/>
<path d="M30.247 31.4923C31.2455 31.5618 31.8398 31.731 32.8595 32.0211C35.1883 32.683 37.3935 33.7287 39.4358 35.0222C47.2127 39.9484 52.1178 48.3049 55.035 56.8457C59.2583 69.2096 59.9612 82.6373 59.5147 95.5936C59.4906 96.325 60.6218 96.3945 60.649 95.6601C61.1859 80.014 60.1603 63.15 52.9474 48.9396C49.4119 41.9794 44.0845 35.7566 36.9561 32.3596C34.9228 31.3895 32.588 30.507 30.3134 30.3529C29.5803 30.3075 29.517 31.4439 30.247 31.4923Z" fill="#F59B92"/>
<path d="M20.1051 91.1322C20.3615 90.8269 20.6541 90.5489 20.9467 90.2769C20.2046 90.972 19.4595 91.6641 18.7174 92.3592C20.1956 90.9871 21.8879 89.8598 23.6677 88.9199C22.7989 89.3793 21.9301 89.8356 21.0613 90.295C23.3238 89.1133 25.7311 88.255 28.2169 87.6808C27.2727 87.8984 26.3284 88.116 25.3872 88.3336C28.3556 87.6687 31.3844 87.4179 34.4222 87.4934C33.4538 87.4662 32.4855 87.436 31.5201 87.4088C34.024 87.4874 36.5037 87.7805 38.9653 88.2459C45.0408 89.3914 51.0229 84.7946 51.9701 78.7985C52.9566 72.5515 48.6246 66.9151 42.54 65.7697C37.3423 64.7905 31.8761 64.4792 26.615 65.0927C22.5124 65.5702 18.2981 66.5766 14.5212 68.2902C10.1289 70.2849 5.69143 72.9474 2.54505 76.7071C-1.43695 81.458 -0.622454 88.8202 4.12276 92.7219C8.94641 96.681 16.1231 95.8831 20.1051 91.1322Z" fill="#FFB9B6"/>
<path d="M11.7609 84.2782C12.4035 83.5075 12.8922 83.1297 13.7278 82.4739C15.6313 80.9779 17.7731 79.8053 20.0205 78.9107C28.5698 75.5077 38.202 76.4506 46.8116 79.1102C59.2764 82.9605 70.5256 90.2924 80.7249 98.2771C81.3011 98.7274 82.0221 97.851 81.4459 97.3976C69.1349 87.7568 54.9174 78.6659 39.2035 76.1545C31.505 74.9244 23.3479 75.5802 16.4156 79.355C14.4367 80.4339 12.3522 81.803 10.8861 83.5559C10.4125 84.118 11.2903 84.8403 11.7609 84.2782Z" fill="#F59B92"/>
<path d="M212.295 134.03C211.933 133.861 211.55 133.734 211.17 133.61C212.135 133.924 213.104 134.235 214.069 134.55C212.15 133.936 210.141 133.634 208.132 133.534C209.113 133.579 210.093 133.628 211.073 133.673C208.524 133.564 205.981 133.809 203.483 134.344C204.431 134.142 205.378 133.936 206.322 133.734C203.354 134.392 200.503 135.45 197.782 136.807C198.648 136.372 199.511 135.934 200.376 135.499C198.144 136.632 196.02 137.953 193.987 139.415C188.967 143.033 181.604 141.407 178.21 136.378C174.674 131.138 176.213 124.195 181.242 120.572C185.534 117.48 190.358 114.878 195.378 113.198C199.296 111.889 203.538 111.013 207.686 110.961C212.506 110.904 217.653 111.433 222.093 113.5C227.707 116.114 230.087 123.126 227.436 128.674C224.745 134.32 217.906 136.644 212.295 134.03Z" fill="#FFB871"/>
<path d="M216.951 124.279C216.043 123.856 215.439 123.717 214.408 123.478C212.049 122.931 209.614 122.78 207.201 122.922C198.018 123.469 189.692 128.411 183.016 134.476C173.354 143.256 166.265 154.671 160.403 166.234C160.072 166.886 159.046 166.397 159.378 165.744C166.452 151.787 175.484 137.516 188.654 128.571C195.107 124.188 202.772 121.32 210.652 121.798C212.899 121.934 215.37 122.291 217.436 123.258C218.106 123.563 217.614 124.59 216.951 124.279Z" fill="#F59B92"/>
<path d="M201.804 111.19C201.406 111.217 201.008 111.293 200.619 111.368C201.614 111.175 202.613 110.981 203.608 110.788C201.633 111.181 199.726 111.888 197.919 112.774C198.8 112.338 199.681 111.906 200.562 111.471C198.275 112.61 196.166 114.055 194.242 115.732C194.972 115.095 195.702 114.46 196.435 113.822C194.151 115.835 192.169 118.144 190.441 120.65C190.987 119.849 191.533 119.048 192.079 118.247C190.67 120.32 189.448 122.505 188.374 124.769C185.723 130.366 178.495 132.506 173.098 129.746C167.475 126.872 165.475 120.045 168.129 114.442C170.395 109.655 173.363 105.043 176.95 101.141C179.75 98.0977 183.041 95.275 186.646 93.2259C190.839 90.8414 195.599 88.8135 200.486 88.475C206.664 88.0458 212.127 93.0325 212.483 99.1737C212.845 105.415 207.98 110.761 201.804 111.19Z" fill="#FFC786"/>
<path d="M201.175 100.399C200.177 100.468 199.583 100.637 198.563 100.927C196.234 101.589 194.029 102.635 191.987 103.928C184.21 108.855 179.304 117.211 176.387 125.752C172.164 138.116 171.461 151.544 171.908 164.5C171.932 165.231 170.8 165.301 170.773 164.566C170.236 148.92 171.262 132.056 178.475 117.846C182.01 110.886 187.338 104.663 194.466 101.266C196.499 100.296 198.834 99.4133 201.109 99.2591C201.839 99.2138 201.905 100.35 201.175 100.399Z" fill="#F59B92"/>
<path d="M211.322 160.035C211.065 159.729 210.773 159.451 210.48 159.179C211.222 159.874 211.967 160.566 212.709 161.262C211.231 159.889 209.539 158.762 207.759 157.822C208.628 158.282 209.497 158.738 210.365 159.197C208.103 158.016 205.696 157.157 203.21 156.583C204.154 156.801 205.098 157.018 206.039 157.236C203.071 156.571 200.042 156.32 197.005 156.396C197.973 156.369 198.941 156.338 199.907 156.311C197.403 156.39 194.923 156.683 192.461 157.148C186.386 158.294 180.404 153.697 179.457 147.701C178.47 141.454 182.802 135.817 188.887 134.672C194.084 133.693 199.551 133.382 204.812 133.995C208.914 134.473 213.129 135.479 216.906 137.193C221.298 139.187 225.735 141.85 228.882 145.609C232.864 150.36 232.049 157.723 227.304 161.624C222.48 165.583 215.301 164.785 211.322 160.035Z" fill="#FFC786"/>
<path d="M219.662 153.181C219.02 152.41 218.531 152.032 217.695 151.376C215.792 149.88 213.65 148.708 211.403 147.813C202.853 144.41 193.221 145.353 184.612 148.013C172.147 151.863 160.898 159.195 150.698 167.179C150.122 167.63 149.401 166.753 149.977 166.3C162.288 156.659 176.506 147.568 192.22 145.057C199.918 143.827 208.075 144.483 215.008 148.257C216.987 149.336 219.071 150.705 220.537 152.458C221.011 153.02 220.133 153.743 219.662 153.181Z" fill="#F59B92"/>
<path d="M19.1265 65.1313C19.4885 64.9621 19.8716 64.8351 20.2517 64.7112C19.2864 65.0255 18.318 65.3368 17.3527 65.6511C19.2713 65.0376 21.2804 64.7354 23.2895 64.6357C22.3091 64.681 21.3286 64.7294 20.3482 64.7747C22.8973 64.6659 25.4404 64.9107 27.9382 65.4456C26.9909 65.2431 26.0437 65.0376 25.0995 64.8351C28.0679 65.494 30.9186 66.5518 33.6397 67.9087C32.7739 67.4735 31.9111 67.0353 31.0453 66.6001C33.2777 67.7335 35.4014 69.0542 37.4346 70.5169C42.4543 74.1345 49.818 72.5086 53.2118 67.4796C56.7473 62.2391 55.2088 55.297 50.18 51.6734C45.8873 48.5816 41.0637 45.9795 36.0439 44.2992C32.1253 42.9905 27.8838 42.1141 23.7359 42.0627C18.9153 42.0053 13.7689 42.5342 9.32834 44.6014C3.71433 47.2156 1.33417 54.2271 3.98582 59.7759C6.67367 65.4184 13.5125 67.7425 19.1265 65.1313Z" fill="#FFAEAE"/>
<path d="M14.467 55.3768C15.375 54.9537 15.9783 54.8147 17.01 54.5759C19.369 54.0289 21.8035 53.8778 24.2168 54.0198C33.3996 54.5668 41.7256 59.5082 48.4014 65.5738C58.0638 74.3533 65.153 85.7682 71.0144 97.3313C71.3462 97.9841 72.3719 97.4945 72.04 96.8417C64.966 82.885 55.9341 68.6141 42.7633 59.6683C36.3106 55.2861 28.6453 52.418 20.7658 52.8956C18.5183 53.0316 16.0477 53.3882 13.9813 54.3553C13.3146 54.6605 13.8063 55.6881 14.467 55.3768Z" fill="#F59B92"/>
<path d="M29.6198 42.2838C30.018 42.311 30.4163 42.3865 30.8054 42.4621C29.8099 42.2687 28.8114 42.0752 27.8159 41.8818C29.7918 42.2747 31.6983 42.9819 33.5053 43.8674C32.6244 43.4322 31.7436 43 30.8627 42.5648C33.1494 43.7042 35.258 45.1488 37.1826 46.8262C36.4526 46.1885 35.7226 45.5538 34.9895 44.9161C37.2731 46.9289 39.2551 49.2379 40.9836 51.7433C40.4376 50.9424 39.8916 50.1416 39.3456 49.3407C40.7544 51.4139 41.9761 53.599 43.0501 55.8626C45.7017 61.4598 52.9296 63.5995 58.3265 60.8402C63.9495 57.9661 65.9496 51.1389 63.2949 45.5357C61.0294 40.7485 58.061 36.1366 54.4742 32.2349C51.6747 29.1915 48.3835 26.3687 44.7786 24.3197C40.5854 21.9351 35.8251 19.9072 30.9381 19.5687C24.76 19.1396 19.2968 24.1263 18.9408 30.2674C18.5788 36.5083 23.4447 41.8546 29.6198 42.2838Z" fill="#FFB9B6"/>
<path d="M30.247 31.4923C31.2455 31.5618 31.8398 31.731 32.8595 32.0211C35.1883 32.683 37.3935 33.7287 39.4358 35.0222C47.2127 39.9484 52.1178 48.3049 55.035 56.8457C59.2583 69.2096 59.9612 82.6373 59.5147 95.5936C59.4906 96.325 60.6218 96.3945 60.649 95.6601C61.1859 80.014 60.1603 63.15 52.9474 48.9396C49.4119 41.9794 44.0845 35.7566 36.9561 32.3596C34.9228 31.3895 32.588 30.507 30.3134 30.3529C29.5803 30.3075 29.517 31.4439 30.247 31.4923Z" fill="#F59B92"/>
<path d="M78.0418 28.9323C77.7492 29.2043 77.4898 29.5126 77.2334 29.8178C77.885 29.0381 78.5366 28.2584 79.1882 27.4756C77.9001 29.029 76.8684 30.7819 76.0237 32.6104C76.434 31.7158 76.8442 30.8242 77.2545 29.9296C76.1987 32.2568 75.4716 34.7108 75.0312 37.2283C75.1971 36.2733 75.363 35.3183 75.529 34.3602C75.0252 37.3643 74.9377 40.4107 75.176 43.445C75.0946 42.4779 75.0161 41.5108 74.9347 40.5437C75.1458 43.0431 75.5742 45.5092 76.1685 47.9451C77.6346 53.9624 73.372 60.1912 67.4503 61.4635C61.2752 62.7872 55.4259 58.7556 53.9568 52.7293C52.7019 47.5824 52.1015 42.1273 52.4273 36.8354C52.6838 32.704 53.4621 28.4367 54.9674 24.5652C56.7201 20.0651 59.1364 15.4834 62.7142 12.1318C67.2362 7.89462 74.6179 8.31471 78.7598 12.8511C82.9711 17.4751 82.5608 24.6982 78.0418 28.9323Z" fill="#FFB9B6"/>
<path d="M70.76 20.9578C70.027 21.6408 69.674 22.1516 69.0647 23.022C67.674 25.0076 66.6212 27.2138 65.8519 29.5076C62.9197 38.2449 64.3738 47.8284 67.487 56.2997C71.9939 68.5638 79.9036 79.4257 88.4076 89.1996C88.8872 89.7526 88.0516 90.5203 87.5689 89.9672C77.3002 78.1685 67.4779 64.4325 64.1324 48.8469C62.4944 41.2127 62.7116 33.0164 66.1023 25.878C67.0707 23.841 68.3256 21.6801 69.9938 20.1206C70.5308 19.6159 71.297 20.4561 70.76 20.9578Z" fill="#F59B92"/>
<path d="M20.1051 91.1322C20.3615 90.8269 20.6541 90.5489 20.9467 90.2769C20.2046 90.972 19.4595 91.6641 18.7174 92.3592C20.1956 90.9871 21.8879 89.8598 23.6677 88.9199C22.7989 89.3793 21.9301 89.8356 21.0613 90.295C23.3238 89.1133 25.7311 88.255 28.2169 87.6808C27.2727 87.8984 26.3284 88.116 25.3872 88.3336C28.3556 87.6687 31.3844 87.4179 34.4222 87.4934C33.4538 87.4662 32.4855 87.436 31.5201 87.4088C34.024 87.4874 36.5037 87.7805 38.9653 88.2459C45.0408 89.3914 51.0229 84.7946 51.9701 78.7985C52.9566 72.5515 48.6246 66.9151 42.54 65.7697C37.3423 64.7905 31.8761 64.4792 26.615 65.0927C22.5124 65.5702 18.2981 66.5766 14.5212 68.2902C10.1289 70.2849 5.69143 72.9474 2.54505 76.7071C-1.43695 81.458 -0.622454 88.8202 4.12276 92.7219C8.94641 96.681 16.1231 95.8831 20.1051 91.1322Z" fill="#FFB9B6"/>
<path d="M11.7609 84.2782C12.4035 83.5075 12.8922 83.1297 13.7278 82.4739C15.6313 80.9779 17.7731 79.8053 20.0205 78.9107C28.5698 75.5077 38.202 76.4506 46.8116 79.1102C59.2764 82.9605 70.5256 90.2924 80.7249 98.2771C81.3011 98.7274 82.0221 97.851 81.4459 97.3976C69.1349 87.7568 54.9174 78.6659 39.2035 76.1545C31.505 74.9244 23.3479 75.5802 16.4156 79.355C14.4367 80.4339 12.3522 81.803 10.8861 83.5559C10.4125 84.118 11.2903 84.8403 11.7609 84.2782Z" fill="#F59B92"/>
<path d="M168.829 229.964H40.032C38.1224 229.964 36.6352 228.308 36.8343 226.404L56.8167 35.9253C56.9887 34.2842 58.3703 33.0391 60.0144 33.0391H188.811C190.721 33.0391 192.208 34.6952 192.009 36.5992L172.026 227.078C171.854 228.716 170.473 229.964 168.829 229.964Z" fill="#29ABD3"/>
<path d="M164.56 229.964H35.7663C33.8568 229.964 32.3696 228.308 32.5687 226.404L52.5511 35.9253C52.723 34.2842 54.1047 33.0391 55.7487 33.0391H184.542C186.452 33.0391 187.939 34.6952 187.74 36.5992L167.758 227.078C167.589 228.716 166.207 229.964 164.56 229.964Z" fill="#45C3F3"/>
<path d="M115.443 80.7219C127.1 80.7219 136.747 86.6605 141.842 95.6789C145.996 90.3174 148.768 83.865 149.495 76.9229C151.45 58.303 137.966 43.207 119.38 43.207C100.794 43.207 84.1423 58.303 82.1875 76.9229C81.4605 83.865 82.8783 90.3174 85.9071 95.6789C92.8937 86.6605 103.787 80.7219 115.443 80.7219Z" stroke="white" stroke-width="3.1427" stroke-miterlimit="10"/>
<path d="M112.305 110.641C123.961 110.641 134.855 104.702 141.841 95.6835C136.749 86.6622 127.099 80.7266 115.442 80.7266C103.786 80.7266 92.8928 86.6652 85.9062 95.6835C90.9984 104.702 100.649 110.641 112.305 110.641Z" fill="white"/>
<path d="M127.838 66.477C127.205 72.5094 121.811 77.3993 115.79 77.3993C109.768 77.3993 105.4 72.5094 106.034 66.477C106.667 60.4446 112.061 55.5547 118.082 55.5547C124.104 55.5547 128.472 60.4446 127.838 66.477Z" fill="white"/>
<path d="M159.632 146.724H59.2975C57.946 146.724 56.9656 145.627 57.1074 144.273L58.4347 131.607C58.5765 130.253 59.7862 129.156 61.1376 129.156H161.472C162.823 129.156 163.804 130.253 163.662 131.607L162.335 144.273C162.193 145.627 160.983 146.724 159.632 146.724Z" fill="#29ABD3"/>
<path d="M156.944 172.369H56.61C55.2585 172.369 54.2781 171.272 54.4199 169.918L55.7472 157.252C55.889 155.898 57.0987 154.801 58.4501 154.801H158.785C160.136 154.801 161.116 155.898 160.975 157.252L159.647 169.918C159.505 171.272 158.296 172.369 156.944 172.369Z" fill="#29ABD3"/>
<path d="M127.684 198.964H81.2335C79.6618 198.964 78.5245 197.688 78.6874 196.114L79.5351 188.041C79.701 186.467 81.1068 185.191 82.6784 185.191H129.129C130.701 185.191 131.838 186.467 131.675 188.041L130.827 196.114C130.665 197.688 129.256 198.964 127.684 198.964Z" fill="#29ABD3"/>
<path d="M69.3783 143.284C69.3783 143.284 72.9983 141.017 77.0708 163.231C81.1433 185.444 82.5008 180.004 75.2608 184.537C68.0208 189.071 57.6133 181.364 57.6133 181.364L69.3783 143.284Z" fill="#F58F87"/>
<path d="M77.5241 175.924C77.5241 175.924 101.507 178.191 106.032 176.831C110.557 175.471 118.702 184.084 101.959 185.898C85.2166 187.711 67.1196 187.258 66.6671 185.444C66.2116 183.628 69.8316 175.471 77.5241 175.924Z" fill="#FDDFD8"/>
<path d="M106.704 177.106C106.704 177.106 111.328 174.084 112.336 171.264C113.34 168.444 114.951 169.853 114.951 171.868C114.951 173.884 112.74 176.302 114.951 174.891C117.162 173.479 121.187 168.242 122.191 169.653C123.196 171.065 124.203 177.713 120.984 179.527C117.766 181.34 111.533 184.764 107.913 184.362C104.29 183.954 105.298 178.112 106.704 177.106Z" fill="#FDDFD8"/>
<path d="M59.6983 97.9467C59.6983 97.9467 46.1233 85.5556 34.3583 94.6223C22.5933 103.689 24.1016 114.569 25.61 121.218C27.1183 127.867 26.2133 127.262 23.4983 137.84C20.7833 148.418 14.7499 149.929 22.5933 154.764C30.4366 159.6 31.945 159.6 39.4866 159.298C47.0283 158.996 58.19 160.204 63.9216 152.044C69.6533 143.884 58.4916 132.098 58.4916 132.098C58.4916 132.098 55.1733 117.591 56.0783 114.267C56.9833 110.942 59.6983 97.9467 59.6983 97.9467Z" fill="#3F62A3"/>
<path d="M72.662 148.7C71.6725 144.124 68.4477 140.41 63.7719 140.41L31.8254 144.671C27.3456 144.671 23.5597 148.005 22.9865 152.457C22.9865 152.457 23.4964 161.415 26.8147 170.481C30.133 179.548 28.9264 185.29 24.703 200.703C20.4797 216.117 21.9036 219.867 24.0997 224.579C26.8599 230.5 41.0564 230.762 53.3613 230.623C64.2666 230.5 67.4854 231.708 74.5233 229.291C82.2821 226.628 65.5788 194.333 69.8022 184.057C74.0255 173.782 74.1613 155.63 72.662 148.7Z" fill="#F58F87"/>
<path d="M36.771 120.914C36.771 120.914 41.296 134.212 41.296 138.745C41.296 143.279 40.6927 144.488 41.296 147.812C41.8993 151.137 56.681 152.043 55.4743 148.417C54.2677 144.79 50.6477 133.91 49.441 129.074C48.2343 124.239 32.8493 111.243 36.771 120.914Z" fill="#FFD3CA"/>
<path d="M41.5981 99.7579C41.5981 99.7579 53.6647 96.7357 56.3797 100.06C59.0947 103.385 64.9742 121.192 59.2426 130.863C53.5109 140.534 39.4864 129.678 39.4864 125.749C39.4864 125.749 37.6764 123.331 37.9781 122.425C38.2797 121.518 35.8664 126.958 34.0564 120.913C32.2464 114.869 33.7547 110.94 36.1681 114.265C36.1681 114.265 33.7547 98.8513 41.5981 99.7579Z" fill="#FDDFD8"/>
<path d="M36.1675 114.269C36.1675 114.269 39.2596 120.086 39.1842 112.153C39.151 108.816 44.9159 106.109 48.2342 103.086C51.5525 100.064 51.8542 98.8552 51.8542 98.8552L60.5482 110.216C60.5482 110.216 63.6192 102.784 59.6975 97.9485C55.7759 93.113 25.9109 87.0685 36.1675 114.269Z" fill="#3F62A3"/>
<path d="M22.9887 152.454C22.9887 152.454 14.18 181.843 20.9675 187.283C27.755 192.723 40.8775 202.243 40.8775 202.243L47.2125 193.176L36.3525 152.379L22.9887 152.454Z" fill="#F58F87"/>
<path d="M41.3302 183.203L79.7897 197.709L92.0072 199.523C92.0072 199.523 98.8671 208.813 95.6996 209.266C92.5321 209.72 86.1971 215.41 84.8396 212.69C83.4821 209.97 75.7172 203.6 73.4577 203.6C71.1983 203.6 38.1658 195.44 35.9033 194.08C33.6377 192.723 34.9952 180.936 41.3302 183.203Z" fill="#FDDFD8"/>
<path d="M51.8546 98.8544C51.8546 98.8544 51.0492 103.892 47.4292 109.734C43.8092 115.576 44.3129 115.854 44.3129 115.854C44.3129 115.854 44.6146 112.959 47.0279 108.526C49.4413 104.092 49.2392 98.25 50.2467 98.25C51.2513 98.25 51.8546 98.8544 51.8546 98.8544Z" fill="#3F62A3"/>
<path d="M137.706 178.918L92.0068 199.52C92.0068 199.52 90.046 202.141 85.9735 203.954C81.901 205.767 88.8091 205.792 89.4125 205.387C90.0158 204.982 94.0883 202.818 94.2904 203.824C94.4925 204.83 94.8937 207.653 96.1004 207.653C97.3071 207.653 98.915 205.033 102.535 205.033C106.155 205.033 140.12 194.434 141.326 190C141.326 190 144.017 179.752 137.706 178.918Z" fill="#FFC5BB"/>
<path d="M79.2082 206.848C79.2082 206.848 78.2036 210.475 80.2127 212.288C82.2248 214.101 85.8449 214.706 86.044 212.892C86.2461 211.079 79.2082 202.819 79.2082 206.848Z" fill="#FFC5BB"/>
<path d="M132.66 158.795C132.66 150.994 138.971 144.672 146.757 144.672L166.594 146.869C174.38 146.869 180.691 153.192 180.691 160.992C180.691 160.992 180.667 202.218 182.024 213.548C183.382 224.879 181.572 230.322 180.214 230.775C178.857 231.228 125.914 237.273 129.082 222.766C132.249 208.259 132.66 158.795 132.66 158.795Z" fill="#37B4A8"/>
<path d="M156.928 151C159.939 151 163.951 151.315 163.951 148.299L162.379 129.848C162.379 126.832 159.939 124.387 156.928 124.387C153.917 124.387 151.477 126.832 151.477 129.848L150.379 148.299C150.376 151.315 153.914 151 156.928 151Z" fill="#FFC5BB"/>
<path d="M149.292 140.798H151.618C157.706 140.798 168.029 125.52 168.029 119.056L164.828 110.168C164.828 103.703 157.703 100.805 151.615 100.805H149.289C143.202 100.805 138.27 106.045 138.27 112.51V129.096C138.273 135.56 143.205 140.798 149.292 140.798Z" fill="#FFC5BB"/>
<path d="M161.874 122.461C161.874 122.461 161.874 108.405 159.66 109.886C157.446 111.367 143.907 115.559 140.215 110.871C140.215 110.871 140.51 112.08 138.269 111.844C136.03 111.609 133.813 109.39 134.8 104.213C135.783 99.0362 140.462 95.337 146.121 95.5818C151.783 95.8296 154.981 98.5405 159.165 98.0479C163.349 97.5553 178.611 102.98 168.764 121.473L162.858 129.857C162.858 129.857 169.012 112.842 165.567 117.034C162.119 121.228 161.874 122.461 161.874 122.461Z" fill="#F58F87"/>
<path d="M132.703 157.688C132.703 157.688 127.675 176.628 125.666 180.052C123.653 183.476 120.637 187.103 120.637 187.103C120.637 187.103 127.071 191.938 124.257 198.587C124.257 198.587 124.86 199.796 128.682 197.78C132.504 195.764 135.521 198.787 135.521 191.533C135.521 184.28 132.703 157.688 132.703 157.688Z" fill="#37B4A8"/>
<path d="M188.636 199.046C190.431 201.138 173.851 257.143 173.851 257.143C173.851 257.143 169.923 263.03 167.818 264.623C165.712 266.215 166.783 266.076 165.712 266.215C161.573 266.747 156.071 265.414 158.532 262.876C160.994 260.337 164.11 257.034 162.418 257.678C160.777 258.3 153.651 259.748 157.461 257.064C161.272 254.38 165.438 255.281 166.889 251.784C168.34 248.287 174.653 204.764 178.804 200.981C182.955 197.191 185.55 195.45 188.636 199.046Z" fill="#FFC5BB"/>
<path d="M178.43 154.645C178.43 154.645 189.29 194.535 189.29 199.068C189.29 203.602 182.05 209.042 177.072 207.682C172.095 206.322 174.357 158.725 178.43 154.645Z" fill="#37B4A8"/>
</svg>
