<svg width="25" height="24" viewBox="0 0 25 24" fill="none" xmlns="http://www.w3.org/2000/svg">
<path d="M22.7803 14.4696L20.5303 12.2196C20.3896 12.079 20.1989 12 20 12C19.8011 12 19.6104 12.079 19.4697 12.2196L12.5 19.1893V22.4998H15.8105L22.7803 15.5301C22.9209 15.3894 22.9998 15.1987 22.9998 14.9998C22.9998 14.801 22.9209 14.6102 22.7803 14.4696ZM15.1895 20.9998H14V19.8103L17.75 16.0603L18.9395 17.2498L15.1895 20.9998ZM20 16.1893L18.8105 14.9998L20 13.8103L21.1895 14.9998L20 16.1893Z" fill="#FFFCFD"/>
<path d="M15.5 9.75V8.25H13.8935C13.8236 7.98155 13.7163 7.72428 13.5748 7.48575L14.7125 6.348L13.652 5.2875L12.5142 6.42525C12.2757 6.28369 12.0184 6.17639 11.75 6.1065V4.5H10.25V6.1065C9.98156 6.17639 9.72429 6.28369 9.48575 6.42525L8.348 5.2875L7.2875 6.348L8.42525 7.48575C8.28366 7.72428 8.17635 7.98155 8.1065 8.25H6.5V9.75H8.1065C8.17635 10.0184 8.28366 10.2757 8.42525 10.5142L7.2875 11.652L8.348 12.7125L9.48575 11.5747C9.72429 11.7163 9.98156 11.8236 10.25 11.8935V13.5H11.75V11.8935C12.0184 11.8236 12.2757 11.7163 12.5142 11.5747L13.652 12.7125L14.7125 11.652L13.5748 10.5142C13.7163 10.2757 13.8236 10.0184 13.8935 9.75H15.5ZM11 10.5C10.7033 10.5 10.4133 10.412 10.1666 10.2472C9.91997 10.0824 9.72771 9.84811 9.61418 9.57403C9.50065 9.29994 9.47094 8.99834 9.52882 8.70736C9.5867 8.41639 9.72956 8.14912 9.93934 7.93934C10.1491 7.72956 10.4164 7.5867 10.7074 7.52882C10.9983 7.47094 11.2999 7.50065 11.574 7.61418C11.8481 7.72771 12.0824 7.91997 12.2472 8.16664C12.412 8.41332 12.5 8.70333 12.5 9C12.4996 9.3977 12.3414 9.779 12.0602 10.0602C11.779 10.3414 11.3977 10.4996 11 10.5Z" fill="#FFFCFD"/>
<path d="M9.5 22.5H5C4.6023 22.4996 4.221 22.3414 3.93978 22.0602C3.65856 21.779 3.5004 21.3977 3.5 21V3C3.5004 2.6023 3.65856 2.221 3.93978 1.93978C4.221 1.65856 4.6023 1.5004 5 1.5H17C17.3977 1.5004 17.779 1.65856 18.0602 1.93978C18.3414 2.221 18.4996 2.6023 18.5 3V10.5H17V3H5V21H9.5V22.5Z" fill="#FFFCFD"/>
</svg>
