<svg width="80" height="85" viewBox="0 0 80 85" fill="none" xmlns="http://www.w3.org/2000/svg">
<g clip-path="url(#clip0_4040_8813)">
<rect width="79.12" height="84.12" fill="white"/>
<path d="M2.2272 9.85088C2.26972 9.24336 1.81171 8.7164 1.2042 8.67387C0.596682 8.63135 0.0697212 9.08936 0.0271953 9.69687C-0.0153306 10.3044 0.442682 10.8313 1.0502 10.8739C1.65771 10.9164 2.18467 10.4584 2.2272 9.85088Z" fill="black"/>
<path d="M68.2037 25.9246C68.2474 25.3186 67.7917 24.792 67.1858 24.7482C66.5798 24.7045 66.0532 25.1602 66.0094 25.7661C65.9656 26.3721 66.4214 26.8988 67.0273 26.9425C67.6333 26.9863 68.1599 26.5305 68.2037 25.9246Z" fill="#DA0021"/>
<path d="M44.6739 1.1824C44.7177 0.576459 44.2619 0.0497843 43.656 0.00603141C43.05 -0.0377215 42.5234 0.418016 42.4796 1.02395C42.4359 1.62989 42.8916 2.15656 43.4975 2.20032C44.1035 2.24407 44.6301 1.78833 44.6739 1.1824Z" fill="black"/>
<path d="M62.5103 15.2116L67.1103 6.10156" stroke="black" stroke-width="2" stroke-linecap="round" stroke-linejoin="round"/>
<path d="M16.8602 11.0483L13.7402 5.23828" stroke="#DA0021" stroke-width="2" stroke-linecap="round" stroke-linejoin="round"/>
<path d="M36.48 28.3014V10.9014C36.4787 10.5771 36.4135 10.2561 36.2882 9.95696C36.1628 9.65778 35.9798 9.38623 35.7495 9.1578C35.5192 8.92936 35.2462 8.74853 34.946 8.62561C34.6458 8.5027 34.3244 8.44011 34 8.44143C33.4724 8.44135 32.9586 8.61025 32.5339 8.92336C32.1092 9.23648 31.796 9.67736 31.64 10.1814L26.37 27.4014C25.0023 31.8561 24.6269 36.5562 25.27 41.1714L26.77 52.0014C26.77 52.0014 26.66 54.4414 22.82 57.0014C18.77 59.6314 4.77002 70.5014 4.77002 70.5014" stroke="black" stroke-width="2" stroke-linecap="round" stroke-linejoin="round"/>
<path d="M34.2204 38.2188V32.2188C34.2204 31.4231 34.5365 30.66 35.0991 30.0974C35.6617 29.5348 36.4248 29.2188 37.2204 29.2188C38.0161 29.2188 38.7791 29.5348 39.3417 30.0974C39.9044 30.66 40.2204 31.4231 40.2204 32.2188V52.5788C40.2238 55.8982 38.9573 59.0932 36.6804 61.5088L29.5104 69.1387L17.4404 82.1387" stroke="black" stroke-width="2" stroke-linecap="round" stroke-linejoin="round"/>
<path d="M46.4102 29.2997V11.8997C46.4102 11.2446 46.6704 10.6163 47.1336 10.1531C47.5968 9.68992 48.2251 9.42969 48.8802 9.42969C49.4078 9.42962 49.9216 9.59851 50.3463 9.91162C50.771 10.2247 51.0842 10.6656 51.2402 11.1697L56.5202 28.3997C57.8879 32.8543 58.2633 37.5544 57.6202 42.1697L56.1102 52.9997C56.1102 52.9997 56.2202 55.4397 60.0602 57.9997C64.1202 60.6297 78.1202 71.4997 78.1202 71.4997" stroke="#DA0021" stroke-width="2" stroke-linecap="round" stroke-linejoin="round"/>
<path d="M48.6704 39.2188V33.2188C48.6704 32.4231 48.3543 31.66 47.7917 31.0974C47.2291 30.5348 46.4661 30.2188 45.6704 30.2188C44.8748 30.2188 44.1117 30.5348 43.5491 31.0974C42.9865 31.66 42.6704 32.4231 42.6704 33.2188V53.5788C42.667 56.8982 43.9336 60.0932 46.2104 62.5088L53.3804 70.1387L65.4504 83.1387" stroke="#DA0021" stroke-width="2" stroke-linecap="round" stroke-linejoin="round"/>
</g>
<defs>
<clipPath id="clip0_4040_8813">
<rect width="79.12" height="84.12" fill="white"/>
</clipPath>
</defs>
</svg>
