<svg width="84" height="83" viewBox="0 0 84 83" fill="none" xmlns="http://www.w3.org/2000/svg">
<g clip-path="url(#clip0_3789_19474)">
<rect width="84" height="82.77" fill="white"/>
<path d="M53.3302 81.7702C53.6801 79.2235 53.1344 76.6343 51.7864 74.4455C50.4384 72.2566 48.3719 70.604 45.9402 69.7702C37.6602 66.5102 26.3502 59.5002 27.0602 48.6003C27.0815 47.9538 27.2625 47.3227 27.587 46.7631C27.9115 46.2036 28.3694 45.7331 28.9199 45.3935C29.4704 45.0539 30.0963 44.8558 30.742 44.8168C31.3876 44.7779 32.0329 44.8993 32.6202 45.1702C34.0502 45.9102 35.6202 47.5903 37.2902 50.9403C42.2902 61.3203 56.4302 47.8703 47.0502 42.0803C37.6702 36.2903 26.7402 50.6203 27.8202 38.0003C28.9002 25.3803 49.0802 32.4202 49.0802 32.4202C49.0802 32.4202 35.8902 13.4202 40.7702 8.90025C44.8702 5.06025 54.7102 16.1402 59.1402 31.8102C59.1402 31.8102 58.1402 -4.07975 64.3302 3.04025C70.5202 10.1602 67.6902 33.5403 67.6902 33.5403C67.6902 33.5403 78.0002 13.6102 82.2502 19.9202C86.5002 26.2302 71.4302 45.4003 69.7802 50.8403C68.1302 56.2803 70.5502 77.1503 70.5502 77.1503" stroke="black" stroke-width="2" stroke-linecap="round" stroke-linejoin="round"/>
<path d="M2.66294 11.4588C2.71584 10.7261 2.16481 10.0893 1.43218 10.0364C0.69955 9.98354 0.06275 10.5346 0.0098487 11.2672C-0.0430526 11.9998 0.507977 12.6366 1.24061 12.6895C1.97324 12.7424 2.61004 12.1914 2.66294 11.4588Z" fill="black"/>
<path d="M34.848 1.42753C34.9009 0.694897 34.3499 0.0580951 33.6172 0.00519383C32.8846 -0.0477074 32.2478 0.503324 32.1949 1.23596C32.142 1.96859 32.693 2.60538 33.4257 2.65829C34.1583 2.71119 34.7951 2.16016 34.848 1.42753Z" fill="#DA0021"/>
<path d="M16.6001 36.1594L5.62012 30.6094" stroke="#DA0021" stroke-width="2" stroke-linecap="round" stroke-linejoin="round"/>
<path d="M26.3401 22.0586L22.5801 15.0586" stroke="#DA0021" stroke-width="2" stroke-linecap="round" stroke-linejoin="round"/>
</g>
<defs>
<clipPath id="clip0_3789_19474">
<rect width="84" height="82.77" fill="white"/>
</clipPath>
</defs>
</svg>
