<svg width="69" height="82" viewBox="0 0 69 82" fill="none" xmlns="http://www.w3.org/2000/svg">
<g clip-path="url(#clip0_4040_2471)">
<rect width="68.3" height="81.31" fill="white"/>
<path d="M12.6475 1.30655C12.696 0.634515 12.1906 0.0503828 11.5185 0.00185688C10.8465 -0.0466691 10.2624 0.458787 10.2138 1.13083C10.1653 1.80286 10.6708 2.38699 11.3428 2.43552C12.0148 2.48405 12.599 1.97859 12.6475 1.30655Z" fill="black"/>
<path d="M68.2955 20.3534C68.344 19.6814 67.8385 19.0973 67.1665 19.0487C66.4944 19.0002 65.9103 19.5057 65.8618 20.1777C65.8133 20.8497 66.3187 21.4339 66.9908 21.4824C67.6628 21.5309 68.2469 21.0255 68.2955 20.3534Z" fill="#DA0021"/>
<path d="M4.63 14.2L1 11" stroke="black" stroke-width="2" stroke-linecap="round" stroke-linejoin="round"/>
<path d="M62.23 13.4419L65.46 7.42188" stroke="#DA0021" stroke-width="2" stroke-linecap="round" stroke-linejoin="round"/>
<path d="M26.13 38.3631C26.13 38.3631 12.67 2.56312 19 3.39312C25.33 4.22312 37 35.0631 37 35.0631C37 35.0631 46.92 -1.36688 52 5.35312C56.27 10.9531 51.86 27.4431 50.27 34.1131C49.9468 35.4765 50.0268 36.9043 50.5 38.2231C52.7 44.3831 58.64 63.2231 52.62 73.1031C45.42 85.0031 38 78.1731 31.67 80.0031C25.34 81.8331 15.79 67.4731 12 52.6031C8.21005 37.7331 22.92 48.4731 27.67 54.0031C30.89 57.7331 32.56 61.6131 28.42 61.5031C26.42 61.4531 23.65 60.0631 18.17 58.1331" stroke="black" stroke-width="2" stroke-linecap="round" stroke-linejoin="round"/>
<path d="M18.3098 46.4216C18.3098 46.4216 13.9998 36.7216 21.5398 36.1016C24.1698 36.1016 26.2398 38.1016 30.1698 42.8916" stroke="black" stroke-width="2" stroke-linecap="round" stroke-linejoin="round"/>
<path d="M55.2502 60.0516C54.0643 57.365 52.2876 54.9807 50.0524 53.0761C47.8171 51.1716 45.1809 49.7959 42.3402 49.0516C35.7802 47.2716 32.9302 45.1216 31.7602 43.8916C31.6581 43.7738 31.5298 43.6816 31.3857 43.6222C31.2415 43.5629 31.0855 43.538 30.9301 43.5497C30.7746 43.5613 30.6241 43.6092 30.4904 43.6894C30.3567 43.7696 30.2436 43.8799 30.1602 44.0116C28.4802 46.6116 25.8102 53.1716 37.4102 57.9016C37.5448 57.9558 37.6643 58.0417 37.7585 58.1521C37.8527 58.2624 37.9189 58.3939 37.9513 58.5354C37.9837 58.6768 37.9814 58.824 37.9447 58.9644C37.9079 59.1047 37.8378 59.2341 37.7402 59.3416C35.9402 61.3416 32.2302 66.1616 33.3602 71.3416" stroke="black" stroke-width="2" stroke-linecap="round" stroke-linejoin="round"/>
<path d="M32.3398 36.1018C35.9833 35.5181 39.6964 35.5181 43.3398 36.1018" stroke="black" stroke-width="2" stroke-linecap="round" stroke-linejoin="round"/>
</g>
<defs>
<clipPath id="clip0_4040_2471">
<rect width="68.3" height="81.31" fill="white"/>
</clipPath>
</defs>
</svg>
