<svg width="71" height="77" viewBox="0 0 71 77" fill="none" xmlns="http://www.w3.org/2000/svg">
<g clip-path="url(#clip0_4040_3143)">
<rect width="70.94" height="76.93" fill="white"/>
<path d="M2.4351 19.0995C2.48363 18.4275 1.97817 17.8434 1.30613 17.7948C0.634096 17.7463 0.0499642 18.2518 0.00143825 18.9238C-0.0470877 19.5958 0.458368 20.18 1.13041 20.2285C1.80244 20.277 2.38657 19.7716 2.4351 19.0995Z" fill="black"/>
<path d="M64.6856 35.8691C64.7341 35.197 64.2287 34.6129 63.5566 34.5644C62.8846 34.5158 62.3005 35.0213 62.2519 35.6933C62.2034 36.3654 62.7089 36.9495 63.3809 36.998C64.0529 37.0465 64.6371 36.5411 64.6856 35.8691Z" fill="#DA0021"/>
<path d="M26.7798 5.51L25.0298 1" stroke="black" stroke-width="2" stroke-linecap="round" stroke-linejoin="round"/>
<path d="M63.48 19.5595L69.94 7.51953" stroke="#DA0021" stroke-width="2" stroke-linecap="round" stroke-linejoin="round"/>
<path d="M24.9997 33.4608C24.9997 33.4608 21.8297 12.8508 16.4997 11.8508C11.1697 10.8508 16.4997 38.3508 16.4997 38.3508C16.4997 38.3508 8.16975 74.8508 30.6697 75.8508C49.4197 76.6808 57.4097 71.0408 55.9797 58.7108C55.665 56.2126 54.805 53.8142 53.4605 51.6852C52.1161 49.5562 50.3201 47.7488 48.1997 46.3908C42.7597 42.8508 35.7597 39.3908 32.7897 43.3908C32.34 43.9666 32.0858 44.6709 32.0642 45.4012C32.0426 46.1315 32.2547 46.8496 32.6697 47.4508C34.5197 50.1208 39.2797 53.1008 45.1697 54.5408C45.1697 54.5408 33.3397 57.2108 33.4997 71.2108" stroke="black" stroke-width="2" stroke-linecap="round" stroke-linejoin="round"/>
<path d="M33 42.3984L33.36 34.8584C33.3726 33.6252 33.8633 32.445 34.7288 31.5664C35.5943 30.6878 36.7671 30.1795 38 30.1484V30.1484C39.2602 30.2183 40.4419 30.7827 41.2882 31.7189C42.1346 32.6552 42.5773 33.8876 42.52 35.1484V42.3984" stroke="black" stroke-width="2" stroke-linecap="round" stroke-linejoin="round"/>
<path d="M32.9998 33.269C32.9998 33.269 28.7498 26.519 25.5098 32.269C21.4198 39.519 26.5098 56.769 32.9998 49.019" stroke="black" stroke-width="2" stroke-linecap="round" stroke-linejoin="round"/>
<path d="M42.5499 32.6491C42.5499 32.6491 38.2999 3.39911 44.6799 3.76911C51.0599 4.13911 55.1999 25.3591 52.9499 50.9991" stroke="black" stroke-width="2" stroke-linecap="round" stroke-linejoin="round"/>
</g>
<defs>
<clipPath id="clip0_4040_3143">
<rect width="70.94" height="76.93" fill="white"/>
</clipPath>
</defs>
</svg>
