<svg width="36" height="37" viewBox="0 0 36 37" fill="none" xmlns="http://www.w3.org/2000/svg">
<path d="M18 0.339355C14.4399 0.339355 10.9598 1.39504 7.99974 3.3729C5.03966 5.35077 2.73255 8.16198 1.37018 11.4511C0.00779915 14.7401 -0.348661 18.3593 0.345873 21.851C1.04041 25.3426 2.75474 28.5499 5.27209 31.0673C7.78943 33.5846 10.9967 35.299 14.4884 35.9935C17.98 36.688 21.5992 36.3316 24.8883 34.9692C28.1774 33.6068 30.9886 31.2997 32.9665 28.3396C34.9443 25.3795 36 21.8994 36 18.3394C36 13.5655 34.1036 8.98709 30.7279 5.61143C27.3523 2.23578 22.7739 0.339355 18 0.339355V0.339355ZM27.1 14.8074C27.2037 17.0518 26.6882 19.2815 25.6099 21.2527C24.5315 23.2238 22.9319 24.8604 20.9859 25.9836C19.0399 27.1067 16.8225 27.673 14.5763 27.6206C12.33 27.5681 10.1415 26.899 8.25001 25.6864C10.5283 25.9593 12.8219 25.3178 14.628 23.9024C13.7286 23.8854 12.857 23.5879 12.1348 23.0515C11.4127 22.5151 10.8761 21.7665 10.6 20.9104C11.2461 21.0346 11.912 21.0096 12.547 20.8374C11.5631 20.6376 10.6797 20.1009 10.0489 19.3199C9.41803 18.5388 9.0793 17.5623 9.09101 16.5584C9.68957 16.8905 10.3588 17.075 11.043 17.0964C10.1303 16.4863 9.48442 15.5512 9.23695 14.4816C8.98947 13.412 9.159 12.2883 9.71101 11.3394C10.7928 12.6702 12.1425 13.7586 13.6724 14.5338C15.2022 15.3091 16.8781 15.7539 18.591 15.8394C18.3761 14.9156 18.4718 13.9468 18.8632 13.0829C19.2545 12.2191 19.9198 11.5083 20.7559 11.0607C21.5921 10.6132 22.5525 10.4537 23.4884 10.6072C24.4243 10.7606 25.2835 11.2183 25.933 11.9094C26.8981 11.7218 27.8239 11.37 28.67 10.8694C28.3482 11.8674 27.6748 12.7146 26.775 13.2534C27.6286 13.1519 28.4622 12.923 29.248 12.5744C28.6723 13.4419 27.9446 14.1984 27.1 14.8074Z" fill="#1E1E1E"/>
</svg>
