<svg width="11" height="7" viewBox="0 0 11 7" fill="none" xmlns="http://www.w3.org/2000/svg">
<path d="M5.00124 0.15052L5.00115 0.150521C4.77827 0.151459 4.56468 0.239905 4.40638 0.396798C4.4063 0.396872 4.40623 0.396947 4.40615 0.397021L0.406588 4.39659L0.406476 4.3967C0.246332 4.55651 0.15623 4.77338 0.155991 4.99962C0.155751 5.22586 0.245395 5.44292 0.4052 5.60307C0.565005 5.76321 0.781881 5.85331 1.00812 5.85355C1.12014 5.85367 1.23109 5.83172 1.33463 5.78896C1.43807 5.74625 1.53209 5.68359 1.61134 5.60457C1.61142 5.60449 1.61149 5.60442 1.61157 5.60434L4.89418 2.30473L5.00039 2.19797L5.10673 2.3046L8.39751 5.60438C8.39755 5.60442 8.39758 5.60445 8.39762 5.60449C8.4769 5.68362 8.57098 5.74638 8.6745 5.78918C8.77807 5.83199 8.88905 5.85399 9.00112 5.85391C9.11319 5.85383 9.22415 5.83168 9.32765 5.78872C9.43116 5.74576 9.52519 5.68283 9.60438 5.60353C9.68357 5.52423 9.74636 5.43011 9.78918 5.32654C9.83199 5.22297 9.85398 5.11199 9.85391 4.99992C9.85383 4.88785 9.83168 4.7769 9.78872 4.67339C9.74576 4.56988 9.68283 4.47585 9.60353 4.39666L9.60346 4.39659L5.60389 0.39702C5.6038 0.396929 5.6037 0.396836 5.60361 0.396745C5.52435 0.318197 5.43039 0.256026 5.3271 0.213778C5.22369 0.171481 5.11296 0.149986 5.00124 0.15052Z" fill="#666666" stroke="white" stroke-width="0.3"/>
</svg>
