<svg width="18" height="18" viewBox="0 0 18 18" fill="none" xmlns="http://www.w3.org/2000/svg">
<path d="M12.6327 10.667C12.6994 10.117 12.7493 9.56699 12.7493 9.00033C12.7493 8.43366 12.6994 7.88366 12.6327 7.33366H15.4493C15.5827 7.86699 15.666 8.42533 15.666 9.00033C15.666 9.57533 15.5827 10.1337 15.4493 10.667H12.6327ZM11.1577 15.3003C11.6577 14.3753 12.041 13.3753 12.3077 12.3337H14.766C13.9587 13.7239 12.6778 14.777 11.1577 15.3003ZM10.9493 10.667H7.04935C6.96602 10.117 6.91602 9.56699 6.91602 9.00033C6.91602 8.43366 6.96602 7.87533 7.04935 7.33366H10.9493C11.0243 7.87533 11.0827 8.43366 11.0827 9.00033C11.0827 9.56699 11.0243 10.117 10.9493 10.667ZM8.99935 15.6337C8.30768 14.6337 7.74935 13.5253 7.40768 12.3337H10.591C10.2493 13.5253 9.69102 14.6337 8.99935 15.6337ZM5.66602 5.66699H3.23268C4.03173 4.273 5.31168 3.21823 6.83268 2.70033C6.33268 3.62533 5.95768 4.62533 5.66602 5.66699ZM3.23268 12.3337H5.66602C5.95768 13.3753 6.33268 14.3753 6.83268 15.3003C5.31487 14.7767 4.03672 13.7234 3.23268 12.3337ZM2.54935 10.667C2.41602 10.1337 2.33268 9.57533 2.33268 9.00033C2.33268 8.42533 2.41602 7.86699 2.54935 7.33366H5.36602C5.29935 7.88366 5.24935 8.43366 5.24935 9.00033C5.24935 9.56699 5.29935 10.117 5.36602 10.667H2.54935ZM8.99935 2.35866C9.69102 3.35866 10.2493 4.47533 10.591 5.66699H7.40768C7.74935 4.47533 8.30768 3.35866 8.99935 2.35866ZM14.766 5.66699H12.3077C12.0469 4.63487 11.6607 3.63857 11.1577 2.70033C12.691 3.22533 13.966 4.28366 14.766 5.66699ZM8.99935 0.666992C4.39102 0.666992 0.666016 4.41699 0.666016 9.00033C0.666016 11.2105 1.54399 13.3301 3.10679 14.8929C3.88061 15.6667 4.79927 16.2805 5.81032 16.6993C6.82137 17.1181 7.905 17.3337 8.99935 17.3337C11.2095 17.3337 13.3291 16.4557 14.8919 14.8929C16.4547 13.3301 17.3327 11.2105 17.3327 9.00033C17.3327 7.90598 17.1171 6.82234 16.6983 5.8113C16.2796 4.80025 15.6657 3.88159 14.8919 3.10777C14.1181 2.33395 13.1994 1.72012 12.1884 1.30133C11.1773 0.88254 10.0937 0.666992 8.99935 0.666992Z" fill="#DA0021"/>
</svg>
