<svg width="91" height="94" viewBox="0 0 91 94" fill="none" xmlns="http://www.w3.org/2000/svg">
<path d="M8.25971 38.4743C8.09664 37.8205 7.43447 37.4227 6.78072 37.5858C6.12696 37.7489 5.72918 38.411 5.89224 39.0648C6.05531 39.7186 6.71747 40.1163 7.37123 39.9533C8.02499 39.7902 8.42277 39.128 8.25971 38.4743Z" fill="#DA0021"/>
<path d="M72.6367 35.0343C72.4736 34.3806 71.8114 33.9828 71.1577 34.1459C70.5039 34.3089 70.1061 34.9711 70.2692 35.6249C70.4323 36.2786 71.0944 36.6764 71.7482 36.5133C72.4019 36.3503 72.7997 35.6881 72.6367 35.0343Z" fill="#1F1C1C"/>
<path d="M27.1645 17.9815L24.0977 14.2402" stroke="#DA0021" stroke-width="2" stroke-linecap="round" stroke-linejoin="round"/>
<path d="M66.4156 19.9102L68.8071 6.45749" stroke="#1F1C1C" stroke-width="2" stroke-linecap="round" stroke-linejoin="round"/>
<path d="M34.1731 45.0971C34.1731 45.0971 24.7454 26.4977 19.3689 27.2064C13.9924 27.9151 27.6174 52.39 27.6174 52.39C27.6174 52.39 31.0624 89.6696 52.7559 83.6165C70.8328 78.569 76.6704 70.7222 71.4735 59.4498C70.3968 57.1737 68.8329 55.162 66.8926 53.5573C64.9523 51.9526 62.6829 50.7939 60.2452 50.1635C53.9736 48.4926 46.2443 47.3833 44.6669 52.1091C44.4187 52.7962 44.3963 53.5447 44.6031 54.2454C44.8099 54.9461 45.2351 55.5625 45.8166 56.0048C48.4058 57.9663 53.8569 59.3166 59.9025 58.8517C59.9025 58.8517 49.4913 65.0714 54.0011 78.3261" stroke="#DA0021" stroke-width="2" stroke-linecap="round" stroke-linejoin="round"/>
<path d="M44.5591 51.1029L42.5543 43.8254C42.1823 42.6495 42.2813 41.3752 42.8304 40.2708C43.3794 39.1665 44.3357 38.3183 45.4977 37.9051V37.9051C46.717 37.5792 48.0157 37.7477 49.1114 38.374C50.2072 39.0003 51.0115 40.0338 51.3495 41.2498L53.6062 48.1396" stroke="#DA0021" stroke-width="2" stroke-linecap="round" stroke-linejoin="round"/>
<path d="M41.7161 42.4267C41.7161 42.4267 35.5762 37.3349 34.2869 43.8077C32.6568 51.9706 42.8632 66.7794 46.6185 57.3943" stroke="#DA0021" stroke-width="2" stroke-linecap="round" stroke-linejoin="round"/>
<path d="M50.5994 38.8646C50.5994 38.8646 37.456 12.3906 43.6342 10.7563C49.8124 9.12205 60.3518 27.9993 66.1944 53.0659" stroke="#DA0021" stroke-width="2" stroke-linecap="round" stroke-linejoin="round"/>
</svg>
