<svg width="36" height="37" viewBox="0 0 36 37" fill="none" xmlns="http://www.w3.org/2000/svg">
<path d="M18 0.339355C14.4399 0.339355 10.9598 1.39504 7.99974 3.3729C5.03966 5.35077 2.73255 8.16198 1.37018 11.4511C0.00779915 14.7401 -0.348661 18.3593 0.345873 21.851C1.04041 25.3426 2.75474 28.5499 5.27209 31.0673C7.78943 33.5846 10.9967 35.299 14.4884 35.9935C17.98 36.688 21.5992 36.3316 24.8883 34.9692C28.1774 33.6068 30.9886 31.2997 32.9665 28.3396C34.9443 25.3795 36 21.8994 36 18.3394C36 13.5655 34.1036 8.98709 30.7279 5.61143C27.3523 2.23578 22.7739 0.339355 18 0.339355V0.339355ZM24.661 25.6774C21.508 25.8934 14.485 25.8934 11.337 25.6774C7.92301 25.4394 7.52501 23.7724 7.50001 18.3394C7.52601 12.8964 7.92701 11.2394 11.337 11.0014C14.485 10.7854 21.51 10.7854 24.661 11.0014C28.077 11.2394 28.473 12.9064 28.5 18.3394C28.473 23.7834 28.073 25.4394 24.661 25.6774ZM15 14.8264L22.375 18.3334L15 21.8524V14.8264Z" fill="#1E1E1E"/>
</svg>
