<svg width="300" height="300" viewBox="0 0 300 300" fill="none" xmlns="http://www.w3.org/2000/svg">
<path d="M258.52 287.002H32.8199C25.5599 287.002 19.6699 281.112 19.6699 273.852V125.482C19.6699 118.222 25.5599 112.332 32.8199 112.332H258.52C265.78 112.332 271.67 118.222 271.67 125.482V273.852C271.67 281.112 265.78 287.002 258.52 287.002Z" fill="#F7F0F1"/>
<path d="M88.0099 49.0703C84.7099 46.6903 80.6299 45.1503 76.8699 44.3803V50.6803C89.6999 53.2203 96.9999 57.2203 96.9999 67.6703V67.8203C96.9999 77.9603 89.0899 83.8803 77.0199 84.8003V92.3303H69.0299V84.8003C60.4999 84.0303 52.1999 81.3403 45.6699 76.8103L53.5099 65.2103C59.1999 68.9003 64.4999 70.9003 69.4899 71.6603V65.2103C55.8899 62.6003 48.7499 58.3703 48.7499 48.3103V48.1603C48.7499 38.6303 55.5899 31.6403 69.3399 30.9503V26.5703H77.3299V31.1803C84.4799 31.8703 90.2399 34.1003 95.3899 37.4003L88.0099 49.0703ZM69.6499 49.9203V43.7003C65.8899 43.7803 64.4999 45.0103 64.4999 46.5403V46.6903C64.4999 48.3003 65.6499 49.2303 69.6499 49.9203ZM76.7199 65.9003V72.1203C80.2499 71.9703 81.6399 70.8103 81.6399 69.2003V69.0503C81.6299 67.4403 80.6299 66.5903 76.7199 65.9003Z" fill="#FCD29A"/>
<path d="M77.0001 174.332H48.3301V272.332H77.0001V174.332Z" fill="#5FCCF4"/>
<path d="M127 153H98.3301V272.33H127V153Z" fill="#7BCAB5"/>
<path d="M177 97H148.33V272.33H177V97Z" fill="#5FCCF4"/>
<path d="M227 39H198.33V272.33H227V39Z" fill="#7BCAB5"/>
<path d="M32.3301 127H106.33" stroke="#B3B3B3" stroke-miterlimit="10"/>
<path d="M32.3301 140.332H106.33" stroke="#B3B3B3" stroke-miterlimit="10"/>
</svg>
